<svg width="221" height="264" viewBox="0 0 221 264" fill="none" xmlns="http://www.w3.org/2000/svg">
<rect x="0.5" y="0.5" width="220" height="263" rx="4.5" fill="#C2C2C2"/>
<rect x="0.5" y="0.5" width="220" height="263" rx="4.5" stroke="#9747FF" stroke-dasharray="10 5"/>
<rect x="25" y="94.5" width="73" height="25" rx="12.5" stroke="#1D1D1D" stroke-opacity="0.08"/>
<path d="M37.5978 111H39.0498L42.5918 104.51H42.6138V111H43.6478V103.3H42.1958L38.6538 109.79H38.6318V103.3H37.5978V111ZM47.1783 111.088C47.9337 111.088 48.4873 110.934 48.8393 110.626C49.1913 110.318 49.3673 109.929 49.3673 109.46C49.3673 109.152 49.294 108.892 49.1473 108.679C49.0007 108.459 48.7843 108.29 48.4983 108.173V108.151C48.7257 108.041 48.898 107.887 49.0153 107.689C49.14 107.491 49.2023 107.256 49.2023 106.985C49.2023 106.53 49.0337 106.156 48.6963 105.863C48.3663 105.562 47.8567 105.412 47.1673 105.412C46.478 105.412 45.961 105.566 45.6163 105.874C45.279 106.182 45.081 106.607 45.0223 107.15H46.0563C46.115 106.879 46.225 106.673 46.3863 106.534C46.5477 106.387 46.808 106.314 47.1673 106.314C47.5267 106.314 47.7833 106.38 47.9373 106.512C48.0913 106.644 48.1683 106.816 48.1683 107.029C48.1683 107.242 48.0913 107.414 47.9373 107.546C47.7833 107.678 47.5267 107.744 47.1673 107.744H46.5623V108.646H47.1673C47.6 108.646 47.9007 108.716 48.0693 108.855C48.2453 108.994 48.3333 109.181 48.3333 109.416C48.3333 109.651 48.2453 109.838 48.0693 109.977C47.9007 110.116 47.6037 110.186 47.1783 110.186C46.7457 110.186 46.4377 110.105 46.2543 109.944C46.071 109.783 45.95 109.548 45.8913 109.24H44.8573C44.916 109.819 45.125 110.274 45.4843 110.604C45.851 110.927 46.4157 111.088 47.1783 111.088ZM50.6912 111H51.6812V106.71H51.7032L53.1112 109.735H54.1012L55.5092 106.71H55.5312V111H56.5212V105.5H55.1132L53.6502 108.635H53.6282L52.1652 105.5H50.6912V111ZM60.3568 111.088C60.9874 111.088 61.5044 110.941 61.9078 110.648C62.3184 110.355 62.5898 109.922 62.7218 109.35H61.6878C61.5704 109.643 61.3981 109.856 61.1708 109.988C60.9434 110.12 60.6538 110.186 60.3018 110.186C59.8618 110.186 59.5134 110.043 59.2568 109.757C59.0074 109.471 58.8754 109.068 58.8608 108.547H62.7768V108.151C62.7768 107.711 62.7181 107.322 62.6008 106.985C62.4834 106.648 62.3148 106.362 62.0948 106.127C61.8821 105.892 61.6218 105.716 61.3138 105.599C61.0131 105.474 60.6758 105.412 60.3018 105.412C59.9278 105.412 59.5868 105.474 59.2788 105.599C58.9781 105.716 58.7178 105.889 58.4978 106.116C58.2851 106.343 58.1201 106.626 58.0028 106.963C57.8854 107.293 57.8268 107.671 57.8268 108.096V108.404C57.8268 108.829 57.8854 109.207 58.0028 109.537C58.1274 109.867 58.2998 110.149 58.5198 110.384C58.7398 110.611 59.0038 110.787 59.3118 110.912C59.6271 111.029 59.9754 111.088 60.3568 111.088ZM60.3018 106.314C60.7491 106.314 61.0901 106.431 61.3248 106.666C61.5594 106.893 61.6988 107.249 61.7428 107.733H58.8718C58.9231 107.271 59.0698 106.919 59.3118 106.677C59.5538 106.435 59.8838 106.314 60.3018 106.314ZM64.1082 111H65.0982V108.646H67.8482V111H68.8382V105.5H67.8482V107.744H65.0982V105.5H64.1082V111ZM70.4891 111H71.8091L74.2071 106.71H74.2291V111H75.2191V105.5H73.8991L71.5011 109.79H71.4791V105.5H70.4891V111ZM77.9699 111H78.9599V106.402H80.7199V105.5H76.2099V106.402H77.9699V111ZM81.7146 111H83.8046C84.5526 111 85.1063 110.835 85.4656 110.505C85.825 110.168 86.0046 109.709 86.0046 109.13C86.0046 108.543 85.825 108.085 85.4656 107.755C85.1136 107.425 84.56 107.26 83.8046 107.26H82.7046V105.5H81.7146V111ZM83.7496 108.162C84.1823 108.162 84.494 108.246 84.6846 108.415C84.8753 108.576 84.9706 108.815 84.9706 109.13C84.9706 109.453 84.879 109.695 84.6956 109.856C84.5123 110.017 84.197 110.098 83.7496 110.098H82.7046V108.162H83.7496Z" fill="#3988FF"/>
<rect x="123" y="94.5" width="73" height="25" rx="12.5" stroke="#1D1D1D" stroke-opacity="0.08"/>
<path d="M135.598 111H137.05L140.592 104.51H140.614V111H141.648V103.3H140.196L136.654 109.79H136.632V103.3H135.598V111ZM145.178 111.088C145.934 111.088 146.487 110.934 146.839 110.626C147.191 110.318 147.367 109.929 147.367 109.46C147.367 109.152 147.294 108.892 147.147 108.679C147.001 108.459 146.784 108.29 146.498 108.173V108.151C146.726 108.041 146.898 107.887 147.015 107.689C147.14 107.491 147.202 107.256 147.202 106.985C147.202 106.53 147.034 106.156 146.696 105.863C146.366 105.562 145.857 105.412 145.167 105.412C144.478 105.412 143.961 105.566 143.616 105.874C143.279 106.182 143.081 106.607 143.022 107.15H144.056C144.115 106.879 144.225 106.673 144.386 106.534C144.548 106.387 144.808 106.314 145.167 106.314C145.527 106.314 145.783 106.38 145.937 106.512C146.091 106.644 146.168 106.816 146.168 107.029C146.168 107.242 146.091 107.414 145.937 107.546C145.783 107.678 145.527 107.744 145.167 107.744H144.562V108.646H145.167C145.6 108.646 145.901 108.716 146.069 108.855C146.245 108.994 146.333 109.181 146.333 109.416C146.333 109.651 146.245 109.838 146.069 109.977C145.901 110.116 145.604 110.186 145.178 110.186C144.746 110.186 144.438 110.105 144.254 109.944C144.071 109.783 143.95 109.548 143.891 109.24H142.857C142.916 109.819 143.125 110.274 143.484 110.604C143.851 110.927 144.416 111.088 145.178 111.088ZM148.691 111H149.681V106.71H149.703L151.111 109.735H152.101L153.509 106.71H153.531V111H154.521V105.5H153.113L151.65 108.635H151.628L150.165 105.5H148.691V111ZM158.357 111.088C158.987 111.088 159.504 110.941 159.908 110.648C160.318 110.355 160.59 109.922 160.722 109.35H159.688C159.57 109.643 159.398 109.856 159.171 109.988C158.943 110.12 158.654 110.186 158.302 110.186C157.862 110.186 157.513 110.043 157.257 109.757C157.007 109.471 156.875 109.068 156.861 108.547H160.777V108.151C160.777 107.711 160.718 107.322 160.601 106.985C160.483 106.648 160.315 106.362 160.095 106.127C159.882 105.892 159.622 105.716 159.314 105.599C159.013 105.474 158.676 105.412 158.302 105.412C157.928 105.412 157.587 105.474 157.279 105.599C156.978 105.716 156.718 105.889 156.498 106.116C156.285 106.343 156.12 106.626 156.003 106.963C155.885 107.293 155.827 107.671 155.827 108.096V108.404C155.827 108.829 155.885 109.207 156.003 109.537C156.127 109.867 156.3 110.149 156.52 110.384C156.74 110.611 157.004 110.787 157.312 110.912C157.627 111.029 157.975 111.088 158.357 111.088ZM158.302 106.314C158.749 106.314 159.09 106.431 159.325 106.666C159.559 106.893 159.699 107.249 159.743 107.733H156.872C156.923 107.271 157.07 106.919 157.312 106.677C157.554 106.435 157.884 106.314 158.302 106.314ZM162.108 111H163.098V108.646H165.848V111H166.838V105.5H165.848V107.744H163.098V105.5H162.108V111ZM168.489 111H169.809L172.207 106.71H172.229V111H173.219V105.5H171.899L169.501 109.79H169.479V105.5H168.489V111ZM175.97 111H176.96V106.402H178.72V105.5H174.21V106.402H175.97V111ZM179.715 111H181.805C182.553 111 183.106 110.835 183.466 110.505C183.825 110.168 184.005 109.709 184.005 109.13C184.005 108.543 183.825 108.085 183.466 107.755C183.114 107.425 182.56 107.26 181.805 107.26H180.705V105.5H179.715V111ZM181.75 108.162C182.182 108.162 182.494 108.246 182.685 108.415C182.875 108.576 182.971 108.815 182.971 109.13C182.971 109.453 182.879 109.695 182.696 109.856C182.512 110.017 182.197 110.098 181.75 110.098H180.705V108.162H181.75Z" fill="#1E1E21" fill-opacity="0.4"/>
<rect x="25" y="144.5" width="73" height="25" rx="12.5" stroke="white" stroke-opacity="0.08"/>
<path d="M37.5978 161H39.0498L42.5918 154.51H42.6138V161H43.6478V153.3H42.1958L38.6538 159.79H38.6318V153.3H37.5978V161ZM47.1783 161.088C47.9337 161.088 48.4873 160.934 48.8393 160.626C49.1913 160.318 49.3673 159.929 49.3673 159.46C49.3673 159.152 49.294 158.892 49.1473 158.679C49.0007 158.459 48.7843 158.29 48.4983 158.173V158.151C48.7257 158.041 48.898 157.887 49.0153 157.689C49.14 157.491 49.2023 157.256 49.2023 156.985C49.2023 156.53 49.0337 156.156 48.6963 155.863C48.3663 155.562 47.8567 155.412 47.1673 155.412C46.478 155.412 45.961 155.566 45.6163 155.874C45.279 156.182 45.081 156.607 45.0223 157.15H46.0563C46.115 156.879 46.225 156.673 46.3863 156.534C46.5477 156.387 46.808 156.314 47.1673 156.314C47.5267 156.314 47.7833 156.38 47.9373 156.512C48.0913 156.644 48.1683 156.816 48.1683 157.029C48.1683 157.242 48.0913 157.414 47.9373 157.546C47.7833 157.678 47.5267 157.744 47.1673 157.744H46.5623V158.646H47.1673C47.6 158.646 47.9007 158.716 48.0693 158.855C48.2453 158.994 48.3333 159.181 48.3333 159.416C48.3333 159.651 48.2453 159.838 48.0693 159.977C47.9007 160.116 47.6037 160.186 47.1783 160.186C46.7457 160.186 46.4377 160.105 46.2543 159.944C46.071 159.783 45.95 159.548 45.8913 159.24H44.8573C44.916 159.819 45.125 160.274 45.4843 160.604C45.851 160.927 46.4157 161.088 47.1783 161.088ZM50.6912 161H51.6812V156.71H51.7032L53.1112 159.735H54.1012L55.5092 156.71H55.5312V161H56.5212V155.5H55.1132L53.6502 158.635H53.6282L52.1652 155.5H50.6912V161ZM60.3568 161.088C60.9874 161.088 61.5044 160.941 61.9078 160.648C62.3184 160.355 62.5898 159.922 62.7218 159.35H61.6878C61.5704 159.643 61.3981 159.856 61.1708 159.988C60.9434 160.12 60.6538 160.186 60.3018 160.186C59.8618 160.186 59.5134 160.043 59.2568 159.757C59.0074 159.471 58.8754 159.068 58.8608 158.547H62.7768V158.151C62.7768 157.711 62.7181 157.322 62.6008 156.985C62.4834 156.648 62.3148 156.362 62.0948 156.127C61.8821 155.892 61.6218 155.716 61.3138 155.599C61.0131 155.474 60.6758 155.412 60.3018 155.412C59.9278 155.412 59.5868 155.474 59.2788 155.599C58.9781 155.716 58.7178 155.889 58.4978 156.116C58.2851 156.343 58.1201 156.626 58.0028 156.963C57.8854 157.293 57.8268 157.671 57.8268 158.096V158.404C57.8268 158.829 57.8854 159.207 58.0028 159.537C58.1274 159.867 58.2998 160.149 58.5198 160.384C58.7398 160.611 59.0038 160.787 59.3118 160.912C59.6271 161.029 59.9754 161.088 60.3568 161.088ZM60.3018 156.314C60.7491 156.314 61.0901 156.431 61.3248 156.666C61.5594 156.893 61.6988 157.249 61.7428 157.733H58.8718C58.9231 157.271 59.0698 156.919 59.3118 156.677C59.5538 156.435 59.8838 156.314 60.3018 156.314ZM64.1082 161H65.0982V158.646H67.8482V161H68.8382V155.5H67.8482V157.744H65.0982V155.5H64.1082V161ZM70.4891 161H71.8091L74.2071 156.71H74.2291V161H75.2191V155.5H73.8991L71.5011 159.79H71.4791V155.5H70.4891V161ZM77.9699 161H78.9599V156.402H80.7199V155.5H76.2099V156.402H77.9699V161ZM81.7146 161H83.8046C84.5526 161 85.1063 160.835 85.4656 160.505C85.825 160.168 86.0046 159.709 86.0046 159.13C86.0046 158.543 85.825 158.085 85.4656 157.755C85.1136 157.425 84.56 157.26 83.8046 157.26H82.7046V155.5H81.7146V161ZM83.7496 158.162C84.1823 158.162 84.494 158.246 84.6846 158.415C84.8753 158.576 84.9706 158.815 84.9706 159.13C84.9706 159.453 84.879 159.695 84.6956 159.856C84.5123 160.017 84.197 160.098 83.7496 160.098H82.7046V158.162H83.7496Z" fill="#3988FF"/>
<rect x="123" y="144.5" width="73" height="25" rx="12.5" stroke="white" stroke-opacity="0.08"/>
<path d="M135.598 161H137.05L140.592 154.51H140.614V161H141.648V153.3H140.196L136.654 159.79H136.632V153.3H135.598V161ZM145.178 161.088C145.934 161.088 146.487 160.934 146.839 160.626C147.191 160.318 147.367 159.929 147.367 159.46C147.367 159.152 147.294 158.892 147.147 158.679C147.001 158.459 146.784 158.29 146.498 158.173V158.151C146.726 158.041 146.898 157.887 147.015 157.689C147.14 157.491 147.202 157.256 147.202 156.985C147.202 156.53 147.034 156.156 146.696 155.863C146.366 155.562 145.857 155.412 145.167 155.412C144.478 155.412 143.961 155.566 143.616 155.874C143.279 156.182 143.081 156.607 143.022 157.15H144.056C144.115 156.879 144.225 156.673 144.386 156.534C144.548 156.387 144.808 156.314 145.167 156.314C145.527 156.314 145.783 156.38 145.937 156.512C146.091 156.644 146.168 156.816 146.168 157.029C146.168 157.242 146.091 157.414 145.937 157.546C145.783 157.678 145.527 157.744 145.167 157.744H144.562V158.646H145.167C145.6 158.646 145.901 158.716 146.069 158.855C146.245 158.994 146.333 159.181 146.333 159.416C146.333 159.651 146.245 159.838 146.069 159.977C145.901 160.116 145.604 160.186 145.178 160.186C144.746 160.186 144.438 160.105 144.254 159.944C144.071 159.783 143.95 159.548 143.891 159.24H142.857C142.916 159.819 143.125 160.274 143.484 160.604C143.851 160.927 144.416 161.088 145.178 161.088ZM148.691 161H149.681V156.71H149.703L151.111 159.735H152.101L153.509 156.71H153.531V161H154.521V155.5H153.113L151.65 158.635H151.628L150.165 155.5H148.691V161ZM158.357 161.088C158.987 161.088 159.504 160.941 159.908 160.648C160.318 160.355 160.59 159.922 160.722 159.35H159.688C159.57 159.643 159.398 159.856 159.171 159.988C158.943 160.12 158.654 160.186 158.302 160.186C157.862 160.186 157.513 160.043 157.257 159.757C157.007 159.471 156.875 159.068 156.861 158.547H160.777V158.151C160.777 157.711 160.718 157.322 160.601 156.985C160.483 156.648 160.315 156.362 160.095 156.127C159.882 155.892 159.622 155.716 159.314 155.599C159.013 155.474 158.676 155.412 158.302 155.412C157.928 155.412 157.587 155.474 157.279 155.599C156.978 155.716 156.718 155.889 156.498 156.116C156.285 156.343 156.12 156.626 156.003 156.963C155.885 157.293 155.827 157.671 155.827 158.096V158.404C155.827 158.829 155.885 159.207 156.003 159.537C156.127 159.867 156.3 160.149 156.52 160.384C156.74 160.611 157.004 160.787 157.312 160.912C157.627 161.029 157.975 161.088 158.357 161.088ZM158.302 156.314C158.749 156.314 159.09 156.431 159.325 156.666C159.559 156.893 159.699 157.249 159.743 157.733H156.872C156.923 157.271 157.07 156.919 157.312 156.677C157.554 156.435 157.884 156.314 158.302 156.314ZM162.108 161H163.098V158.646H165.848V161H166.838V155.5H165.848V157.744H163.098V155.5H162.108V161ZM168.489 161H169.809L172.207 156.71H172.229V161H173.219V155.5H171.899L169.501 159.79H169.479V155.5H168.489V161ZM175.97 161H176.96V156.402H178.72V155.5H174.21V156.402H175.97V161ZM179.715 161H181.805C182.553 161 183.106 160.835 183.466 160.505C183.825 160.168 184.005 159.709 184.005 159.13C184.005 158.543 183.825 158.085 183.466 157.755C183.114 157.425 182.56 157.26 181.805 157.26H180.705V155.5H179.715V161ZM181.75 158.162C182.182 158.162 182.494 158.246 182.685 158.415C182.875 158.576 182.971 158.815 182.971 159.13C182.971 159.453 182.879 159.695 182.696 159.856C182.512 160.017 182.197 160.098 181.75 160.098H180.705V158.162H181.75Z" fill="white" fill-opacity="0.45"/>
</svg>
