<svg width="335" height="264" viewBox="0 0 335 264" fill="none" xmlns="http://www.w3.org/2000/svg">
<rect x="0.5" y="0.5" width="334" height="263" rx="4.5" fill="#C2C2C2"/>
<rect x="0.5" y="0.5" width="334" height="263" rx="4.5" stroke="#9747FF" stroke-dasharray="10 5"/>
<rect x="226" y="48" width="92" height="32" rx="16" fill="white" fill-opacity="0.08"/>
<path d="M247.097 69.112C246.471 69.112 245.897 69.0093 245.375 68.804C244.861 68.5987 244.418 68.2953 244.045 67.894C243.681 67.4927 243.396 66.998 243.191 66.41C242.995 65.8127 242.897 65.1313 242.897 64.366V63.694C242.897 62.966 242.995 62.3173 243.191 61.748C243.396 61.1787 243.681 60.698 244.045 60.306C244.418 59.9047 244.861 59.6013 245.375 59.396C245.897 59.1907 246.471 59.088 247.097 59.088C247.731 59.088 248.305 59.1907 248.819 59.396C249.332 59.6013 249.771 59.9 250.135 60.292C250.508 60.684 250.793 61.1693 250.989 61.748C251.194 62.3173 251.297 62.966 251.297 63.694V64.366C251.297 65.1313 251.194 65.808 250.989 66.396C250.793 66.984 250.508 67.4787 250.135 67.88C249.771 68.2813 249.327 68.5893 248.805 68.804C248.291 69.0093 247.722 69.112 247.097 69.112ZM247.097 67.908C247.517 67.908 247.899 67.838 248.245 67.698C248.59 67.5487 248.889 67.3293 249.141 67.04C249.393 66.7413 249.584 66.3727 249.715 65.934C249.855 65.486 249.925 64.9633 249.925 64.366V63.694C249.925 63.134 249.855 62.644 249.715 62.224C249.575 61.7947 249.379 61.44 249.127 61.16C248.884 60.8707 248.59 60.656 248.245 60.516C247.899 60.3667 247.517 60.292 247.097 60.292C246.677 60.292 246.294 60.362 245.949 60.502C245.603 60.642 245.305 60.8567 245.053 61.146C244.801 61.426 244.605 61.7807 244.465 62.21C244.334 62.63 244.269 63.1247 244.269 63.694V64.366C244.269 64.9633 244.339 65.486 244.479 65.934C244.619 66.3727 244.815 66.7413 245.067 67.04C245.319 67.3293 245.617 67.5487 245.963 67.698C246.308 67.838 246.686 67.908 247.097 67.908ZM255.51 66.774C254.521 66.774 253.807 66.564 253.368 66.144C252.929 65.7147 252.71 65.0613 252.71 64.184V62H253.97V64.1C253.97 64.6693 254.082 65.066 254.306 65.29C254.53 65.514 254.931 65.626 255.51 65.626C255.809 65.626 256.089 65.6073 256.35 65.57C256.621 65.5327 256.854 65.4907 257.05 65.444V62H258.31V69H257.05V66.592C256.854 66.6387 256.621 66.6807 256.35 66.718C256.089 66.7553 255.809 66.774 255.51 66.774ZM260.404 69V62H261.664V67.46H261.692L264.744 62H266.424V69H265.164V63.54H265.136L262.084 69H260.404ZM271.171 69.112C270.237 69.112 269.491 68.818 268.931 68.23C268.371 67.6327 268.091 66.7647 268.091 65.626V65.234C268.091 64.702 268.165 64.2307 268.315 63.82C268.464 63.4093 268.669 63.0593 268.931 62.77C269.201 62.4807 269.528 62.2613 269.911 62.112C270.293 61.9627 270.713 61.888 271.171 61.888C271.609 61.888 271.997 61.9487 272.333 62.07C272.678 62.182 272.972 62.336 273.215 62.532C273.467 62.728 273.663 62.9613 273.803 63.232C273.952 63.5027 274.055 63.792 274.111 64.1H272.795C272.692 63.8013 272.515 63.5493 272.263 63.344C272.02 63.1387 271.679 63.036 271.241 63.036C270.681 63.036 270.233 63.218 269.897 63.582C269.57 63.9367 269.407 64.4873 269.407 65.234V65.626C269.407 66.4287 269.575 67.0213 269.911 67.404C270.247 67.7773 270.69 67.964 271.241 67.964C271.679 67.964 272.02 67.8567 272.263 67.642C272.515 67.418 272.692 67.124 272.795 66.76H274.111C274.055 67.1053 273.952 67.4227 273.803 67.712C273.663 67.992 273.467 68.2393 273.215 68.454C272.972 68.6593 272.678 68.8227 272.333 68.944C271.997 69.056 271.609 69.112 271.171 69.112ZM276.993 69V63.148H274.753V62H280.493V63.148H278.253V69H276.993ZM281.759 69V62H283.019V67.46H283.047L286.099 62H287.779V69H286.519V63.54H286.491L283.439 69H281.759ZM291.28 69V63.148H289.04V62H294.78V63.148H292.54V69H291.28ZM296.046 69V62H297.306V64.24H298.706C299.667 64.24 300.372 64.45 300.82 64.87C301.277 65.29 301.506 65.8733 301.506 66.62C301.506 67.3573 301.277 67.9407 300.82 68.37C300.363 68.79 299.658 69 298.706 69H296.046ZM298.636 65.388H297.306V67.852H298.636C299.205 67.852 299.607 67.7493 299.84 67.544C300.073 67.3387 300.19 67.0307 300.19 66.62C300.19 66.2187 300.069 65.9153 299.826 65.71C299.583 65.4953 299.187 65.388 298.636 65.388Z" fill="#5E6067" fill-opacity="0.4"/>
<rect x="120" y="48" width="92" height="32" rx="16" fill="#1D1D1D" fill-opacity="0.08"/>
<path d="M141.097 69.112C140.471 69.112 139.897 69.0093 139.375 68.804C138.861 68.5987 138.418 68.2953 138.045 67.894C137.681 67.4927 137.396 66.998 137.191 66.41C136.995 65.8127 136.897 65.1313 136.897 64.366V63.694C136.897 62.966 136.995 62.3173 137.191 61.748C137.396 61.1787 137.681 60.698 138.045 60.306C138.418 59.9047 138.861 59.6013 139.375 59.396C139.897 59.1907 140.471 59.088 141.097 59.088C141.731 59.088 142.305 59.1907 142.819 59.396C143.332 59.6013 143.771 59.9 144.135 60.292C144.508 60.684 144.793 61.1693 144.989 61.748C145.194 62.3173 145.297 62.966 145.297 63.694V64.366C145.297 65.1313 145.194 65.808 144.989 66.396C144.793 66.984 144.508 67.4787 144.135 67.88C143.771 68.2813 143.327 68.5893 142.805 68.804C142.291 69.0093 141.722 69.112 141.097 69.112ZM141.097 67.908C141.517 67.908 141.899 67.838 142.245 67.698C142.59 67.5487 142.889 67.3293 143.141 67.04C143.393 66.7413 143.584 66.3727 143.715 65.934C143.855 65.486 143.925 64.9633 143.925 64.366V63.694C143.925 63.134 143.855 62.644 143.715 62.224C143.575 61.7947 143.379 61.44 143.127 61.16C142.884 60.8707 142.59 60.656 142.245 60.516C141.899 60.3667 141.517 60.292 141.097 60.292C140.677 60.292 140.294 60.362 139.949 60.502C139.603 60.642 139.305 60.8567 139.053 61.146C138.801 61.426 138.605 61.7807 138.465 62.21C138.334 62.63 138.269 63.1247 138.269 63.694V64.366C138.269 64.9633 138.339 65.486 138.479 65.934C138.619 66.3727 138.815 66.7413 139.067 67.04C139.319 67.3293 139.617 67.5487 139.963 67.698C140.308 67.838 140.686 67.908 141.097 67.908ZM149.51 66.774C148.521 66.774 147.807 66.564 147.368 66.144C146.929 65.7147 146.71 65.0613 146.71 64.184V62H147.97V64.1C147.97 64.6693 148.082 65.066 148.306 65.29C148.53 65.514 148.931 65.626 149.51 65.626C149.809 65.626 150.089 65.6073 150.35 65.57C150.621 65.5327 150.854 65.4907 151.05 65.444V62H152.31V69H151.05V66.592C150.854 66.6387 150.621 66.6807 150.35 66.718C150.089 66.7553 149.809 66.774 149.51 66.774ZM154.404 69V62H155.664V67.46H155.692L158.744 62H160.424V69H159.164V63.54H159.136L156.084 69H154.404ZM165.171 69.112C164.237 69.112 163.491 68.818 162.931 68.23C162.371 67.6327 162.091 66.7647 162.091 65.626V65.234C162.091 64.702 162.165 64.2307 162.315 63.82C162.464 63.4093 162.669 63.0593 162.931 62.77C163.201 62.4807 163.528 62.2613 163.911 62.112C164.293 61.9627 164.713 61.888 165.171 61.888C165.609 61.888 165.997 61.9487 166.333 62.07C166.678 62.182 166.972 62.336 167.215 62.532C167.467 62.728 167.663 62.9613 167.803 63.232C167.952 63.5027 168.055 63.792 168.111 64.1H166.795C166.692 63.8013 166.515 63.5493 166.263 63.344C166.02 63.1387 165.679 63.036 165.241 63.036C164.681 63.036 164.233 63.218 163.897 63.582C163.57 63.9367 163.407 64.4873 163.407 65.234V65.626C163.407 66.4287 163.575 67.0213 163.911 67.404C164.247 67.7773 164.69 67.964 165.241 67.964C165.679 67.964 166.02 67.8567 166.263 67.642C166.515 67.418 166.692 67.124 166.795 66.76H168.111C168.055 67.1053 167.952 67.4227 167.803 67.712C167.663 67.992 167.467 68.2393 167.215 68.454C166.972 68.6593 166.678 68.8227 166.333 68.944C165.997 69.056 165.609 69.112 165.171 69.112ZM170.993 69V63.148H168.753V62H174.493V63.148H172.253V69H170.993ZM175.759 69V62H177.019V67.46H177.047L180.099 62H181.779V69H180.519V63.54H180.491L177.439 69H175.759ZM185.28 69V63.148H183.04V62H188.78V63.148H186.54V69H185.28ZM190.046 69V62H191.306V64.24H192.706C193.667 64.24 194.372 64.45 194.82 64.87C195.277 65.29 195.506 65.8733 195.506 66.62C195.506 67.3573 195.277 67.9407 194.82 68.37C194.363 68.79 193.658 69 192.706 69H190.046ZM192.636 65.388H191.306V67.852H192.636C193.205 67.852 193.607 67.7493 193.84 67.544C194.073 67.3387 194.19 67.0307 194.19 66.62C194.19 66.2187 194.069 65.9153 193.826 65.71C193.583 65.4953 193.187 65.388 192.636 65.388Z" fill="#5E6067" fill-opacity="0.4"/>
<rect x="226" y="104" width="92" height="40" rx="12" fill="white" fill-opacity="0.08"/>
<path d="M247.097 129.112C246.471 129.112 245.897 129.009 245.375 128.804C244.861 128.599 244.418 128.295 244.045 127.894C243.681 127.493 243.396 126.998 243.191 126.41C242.995 125.813 242.897 125.131 242.897 124.366V123.694C242.897 122.966 242.995 122.317 243.191 121.748C243.396 121.179 243.681 120.698 244.045 120.306C244.418 119.905 244.861 119.601 245.375 119.396C245.897 119.191 246.471 119.088 247.097 119.088C247.731 119.088 248.305 119.191 248.819 119.396C249.332 119.601 249.771 119.9 250.135 120.292C250.508 120.684 250.793 121.169 250.989 121.748C251.194 122.317 251.297 122.966 251.297 123.694V124.366C251.297 125.131 251.194 125.808 250.989 126.396C250.793 126.984 250.508 127.479 250.135 127.88C249.771 128.281 249.327 128.589 248.805 128.804C248.291 129.009 247.722 129.112 247.097 129.112ZM247.097 127.908C247.517 127.908 247.899 127.838 248.245 127.698C248.59 127.549 248.889 127.329 249.141 127.04C249.393 126.741 249.584 126.373 249.715 125.934C249.855 125.486 249.925 124.963 249.925 124.366V123.694C249.925 123.134 249.855 122.644 249.715 122.224C249.575 121.795 249.379 121.44 249.127 121.16C248.884 120.871 248.59 120.656 248.245 120.516C247.899 120.367 247.517 120.292 247.097 120.292C246.677 120.292 246.294 120.362 245.949 120.502C245.603 120.642 245.305 120.857 245.053 121.146C244.801 121.426 244.605 121.781 244.465 122.21C244.334 122.63 244.269 123.125 244.269 123.694V124.366C244.269 124.963 244.339 125.486 244.479 125.934C244.619 126.373 244.815 126.741 245.067 127.04C245.319 127.329 245.617 127.549 245.963 127.698C246.308 127.838 246.686 127.908 247.097 127.908ZM255.51 126.774C254.521 126.774 253.807 126.564 253.368 126.144C252.929 125.715 252.71 125.061 252.71 124.184V122H253.97V124.1C253.97 124.669 254.082 125.066 254.306 125.29C254.53 125.514 254.931 125.626 255.51 125.626C255.809 125.626 256.089 125.607 256.35 125.57C256.621 125.533 256.854 125.491 257.05 125.444V122H258.31V129H257.05V126.592C256.854 126.639 256.621 126.681 256.35 126.718C256.089 126.755 255.809 126.774 255.51 126.774ZM260.404 129V122H261.664V127.46H261.692L264.744 122H266.424V129H265.164V123.54H265.136L262.084 129H260.404ZM271.171 129.112C270.237 129.112 269.491 128.818 268.931 128.23C268.371 127.633 268.091 126.765 268.091 125.626V125.234C268.091 124.702 268.165 124.231 268.315 123.82C268.464 123.409 268.669 123.059 268.931 122.77C269.201 122.481 269.528 122.261 269.911 122.112C270.293 121.963 270.713 121.888 271.171 121.888C271.609 121.888 271.997 121.949 272.333 122.07C272.678 122.182 272.972 122.336 273.215 122.532C273.467 122.728 273.663 122.961 273.803 123.232C273.952 123.503 274.055 123.792 274.111 124.1H272.795C272.692 123.801 272.515 123.549 272.263 123.344C272.02 123.139 271.679 123.036 271.241 123.036C270.681 123.036 270.233 123.218 269.897 123.582C269.57 123.937 269.407 124.487 269.407 125.234V125.626C269.407 126.429 269.575 127.021 269.911 127.404C270.247 127.777 270.69 127.964 271.241 127.964C271.679 127.964 272.02 127.857 272.263 127.642C272.515 127.418 272.692 127.124 272.795 126.76H274.111C274.055 127.105 273.952 127.423 273.803 127.712C273.663 127.992 273.467 128.239 273.215 128.454C272.972 128.659 272.678 128.823 272.333 128.944C271.997 129.056 271.609 129.112 271.171 129.112ZM276.993 129V123.148H274.753V122H280.493V123.148H278.253V129H276.993ZM281.759 129V122H283.019V127.46H283.047L286.099 122H287.779V129H286.519V123.54H286.491L283.439 129H281.759ZM291.28 129V123.148H289.04V122H294.78V123.148H292.54V129H291.28ZM296.046 129V122H297.306V124.24H298.706C299.667 124.24 300.372 124.45 300.82 124.87C301.277 125.29 301.506 125.873 301.506 126.62C301.506 127.357 301.277 127.941 300.82 128.37C300.363 128.79 299.658 129 298.706 129H296.046ZM298.636 125.388H297.306V127.852H298.636C299.205 127.852 299.607 127.749 299.84 127.544C300.073 127.339 300.19 127.031 300.19 126.62C300.19 126.219 300.069 125.915 299.826 125.71C299.583 125.495 299.187 125.388 298.636 125.388Z" fill="#5E6067" fill-opacity="0.4"/>
<rect x="120" y="104" width="92" height="40" rx="12" fill="#1D1D1D" fill-opacity="0.08"/>
<path d="M141.097 129.112C140.471 129.112 139.897 129.009 139.375 128.804C138.861 128.599 138.418 128.295 138.045 127.894C137.681 127.493 137.396 126.998 137.191 126.41C136.995 125.813 136.897 125.131 136.897 124.366V123.694C136.897 122.966 136.995 122.317 137.191 121.748C137.396 121.179 137.681 120.698 138.045 120.306C138.418 119.905 138.861 119.601 139.375 119.396C139.897 119.191 140.471 119.088 141.097 119.088C141.731 119.088 142.305 119.191 142.819 119.396C143.332 119.601 143.771 119.9 144.135 120.292C144.508 120.684 144.793 121.169 144.989 121.748C145.194 122.317 145.297 122.966 145.297 123.694V124.366C145.297 125.131 145.194 125.808 144.989 126.396C144.793 126.984 144.508 127.479 144.135 127.88C143.771 128.281 143.327 128.589 142.805 128.804C142.291 129.009 141.722 129.112 141.097 129.112ZM141.097 127.908C141.517 127.908 141.899 127.838 142.245 127.698C142.59 127.549 142.889 127.329 143.141 127.04C143.393 126.741 143.584 126.373 143.715 125.934C143.855 125.486 143.925 124.963 143.925 124.366V123.694C143.925 123.134 143.855 122.644 143.715 122.224C143.575 121.795 143.379 121.44 143.127 121.16C142.884 120.871 142.59 120.656 142.245 120.516C141.899 120.367 141.517 120.292 141.097 120.292C140.677 120.292 140.294 120.362 139.949 120.502C139.603 120.642 139.305 120.857 139.053 121.146C138.801 121.426 138.605 121.781 138.465 122.21C138.334 122.63 138.269 123.125 138.269 123.694V124.366C138.269 124.963 138.339 125.486 138.479 125.934C138.619 126.373 138.815 126.741 139.067 127.04C139.319 127.329 139.617 127.549 139.963 127.698C140.308 127.838 140.686 127.908 141.097 127.908ZM149.51 126.774C148.521 126.774 147.807 126.564 147.368 126.144C146.929 125.715 146.71 125.061 146.71 124.184V122H147.97V124.1C147.97 124.669 148.082 125.066 148.306 125.29C148.53 125.514 148.931 125.626 149.51 125.626C149.809 125.626 150.089 125.607 150.35 125.57C150.621 125.533 150.854 125.491 151.05 125.444V122H152.31V129H151.05V126.592C150.854 126.639 150.621 126.681 150.35 126.718C150.089 126.755 149.809 126.774 149.51 126.774ZM154.404 129V122H155.664V127.46H155.692L158.744 122H160.424V129H159.164V123.54H159.136L156.084 129H154.404ZM165.171 129.112C164.237 129.112 163.491 128.818 162.931 128.23C162.371 127.633 162.091 126.765 162.091 125.626V125.234C162.091 124.702 162.165 124.231 162.315 123.82C162.464 123.409 162.669 123.059 162.931 122.77C163.201 122.481 163.528 122.261 163.911 122.112C164.293 121.963 164.713 121.888 165.171 121.888C165.609 121.888 165.997 121.949 166.333 122.07C166.678 122.182 166.972 122.336 167.215 122.532C167.467 122.728 167.663 122.961 167.803 123.232C167.952 123.503 168.055 123.792 168.111 124.1H166.795C166.692 123.801 166.515 123.549 166.263 123.344C166.02 123.139 165.679 123.036 165.241 123.036C164.681 123.036 164.233 123.218 163.897 123.582C163.57 123.937 163.407 124.487 163.407 125.234V125.626C163.407 126.429 163.575 127.021 163.911 127.404C164.247 127.777 164.69 127.964 165.241 127.964C165.679 127.964 166.02 127.857 166.263 127.642C166.515 127.418 166.692 127.124 166.795 126.76H168.111C168.055 127.105 167.952 127.423 167.803 127.712C167.663 127.992 167.467 128.239 167.215 128.454C166.972 128.659 166.678 128.823 166.333 128.944C165.997 129.056 165.609 129.112 165.171 129.112ZM170.993 129V123.148H168.753V122H174.493V123.148H172.253V129H170.993ZM175.759 129V122H177.019V127.46H177.047L180.099 122H181.779V129H180.519V123.54H180.491L177.439 129H175.759ZM185.28 129V123.148H183.04V122H188.78V123.148H186.54V129H185.28ZM190.046 129V122H191.306V124.24H192.706C193.667 124.24 194.372 124.45 194.82 124.87C195.277 125.29 195.506 125.873 195.506 126.62C195.506 127.357 195.277 127.941 194.82 128.37C194.363 128.79 193.658 129 192.706 129H190.046ZM192.636 125.388H191.306V127.852H192.636C193.205 127.852 193.607 127.749 193.84 127.544C194.073 127.339 194.19 127.031 194.19 126.62C194.19 126.219 194.069 125.915 193.826 125.71C193.583 125.495 193.187 125.388 192.636 125.388Z" fill="#5E6067" fill-opacity="0.4"/>
<rect x="226" y="168" width="92" height="48" rx="16" fill="white" fill-opacity="0.08"/>
<path d="M247.097 197.112C246.471 197.112 245.897 197.009 245.375 196.804C244.861 196.599 244.418 196.295 244.045 195.894C243.681 195.493 243.396 194.998 243.191 194.41C242.995 193.813 242.897 193.131 242.897 192.366V191.694C242.897 190.966 242.995 190.317 243.191 189.748C243.396 189.179 243.681 188.698 244.045 188.306C244.418 187.905 244.861 187.601 245.375 187.396C245.897 187.191 246.471 187.088 247.097 187.088C247.731 187.088 248.305 187.191 248.819 187.396C249.332 187.601 249.771 187.9 250.135 188.292C250.508 188.684 250.793 189.169 250.989 189.748C251.194 190.317 251.297 190.966 251.297 191.694V192.366C251.297 193.131 251.194 193.808 250.989 194.396C250.793 194.984 250.508 195.479 250.135 195.88C249.771 196.281 249.327 196.589 248.805 196.804C248.291 197.009 247.722 197.112 247.097 197.112ZM247.097 195.908C247.517 195.908 247.899 195.838 248.245 195.698C248.59 195.549 248.889 195.329 249.141 195.04C249.393 194.741 249.584 194.373 249.715 193.934C249.855 193.486 249.925 192.963 249.925 192.366V191.694C249.925 191.134 249.855 190.644 249.715 190.224C249.575 189.795 249.379 189.44 249.127 189.16C248.884 188.871 248.59 188.656 248.245 188.516C247.899 188.367 247.517 188.292 247.097 188.292C246.677 188.292 246.294 188.362 245.949 188.502C245.603 188.642 245.305 188.857 245.053 189.146C244.801 189.426 244.605 189.781 244.465 190.21C244.334 190.63 244.269 191.125 244.269 191.694V192.366C244.269 192.963 244.339 193.486 244.479 193.934C244.619 194.373 244.815 194.741 245.067 195.04C245.319 195.329 245.617 195.549 245.963 195.698C246.308 195.838 246.686 195.908 247.097 195.908ZM255.51 194.774C254.521 194.774 253.807 194.564 253.368 194.144C252.929 193.715 252.71 193.061 252.71 192.184V190H253.97V192.1C253.97 192.669 254.082 193.066 254.306 193.29C254.53 193.514 254.931 193.626 255.51 193.626C255.809 193.626 256.089 193.607 256.35 193.57C256.621 193.533 256.854 193.491 257.05 193.444V190H258.31V197H257.05V194.592C256.854 194.639 256.621 194.681 256.35 194.718C256.089 194.755 255.809 194.774 255.51 194.774ZM260.404 197V190H261.664V195.46H261.692L264.744 190H266.424V197H265.164V191.54H265.136L262.084 197H260.404ZM271.171 197.112C270.237 197.112 269.491 196.818 268.931 196.23C268.371 195.633 268.091 194.765 268.091 193.626V193.234C268.091 192.702 268.165 192.231 268.315 191.82C268.464 191.409 268.669 191.059 268.931 190.77C269.201 190.481 269.528 190.261 269.911 190.112C270.293 189.963 270.713 189.888 271.171 189.888C271.609 189.888 271.997 189.949 272.333 190.07C272.678 190.182 272.972 190.336 273.215 190.532C273.467 190.728 273.663 190.961 273.803 191.232C273.952 191.503 274.055 191.792 274.111 192.1H272.795C272.692 191.801 272.515 191.549 272.263 191.344C272.02 191.139 271.679 191.036 271.241 191.036C270.681 191.036 270.233 191.218 269.897 191.582C269.57 191.937 269.407 192.487 269.407 193.234V193.626C269.407 194.429 269.575 195.021 269.911 195.404C270.247 195.777 270.69 195.964 271.241 195.964C271.679 195.964 272.02 195.857 272.263 195.642C272.515 195.418 272.692 195.124 272.795 194.76H274.111C274.055 195.105 273.952 195.423 273.803 195.712C273.663 195.992 273.467 196.239 273.215 196.454C272.972 196.659 272.678 196.823 272.333 196.944C271.997 197.056 271.609 197.112 271.171 197.112ZM276.993 197V191.148H274.753V190H280.493V191.148H278.253V197H276.993ZM281.759 197V190H283.019V195.46H283.047L286.099 190H287.779V197H286.519V191.54H286.491L283.439 197H281.759ZM291.28 197V191.148H289.04V190H294.78V191.148H292.54V197H291.28ZM296.046 197V190H297.306V192.24H298.706C299.667 192.24 300.372 192.45 300.82 192.87C301.277 193.29 301.506 193.873 301.506 194.62C301.506 195.357 301.277 195.941 300.82 196.37C300.363 196.79 299.658 197 298.706 197H296.046ZM298.636 193.388H297.306V195.852H298.636C299.205 195.852 299.607 195.749 299.84 195.544C300.073 195.339 300.19 195.031 300.19 194.62C300.19 194.219 300.069 193.915 299.826 193.71C299.583 193.495 299.187 193.388 298.636 193.388Z" fill="#5E6067" fill-opacity="0.4"/>
<rect x="120" y="168" width="92" height="48" rx="16" fill="#1D1D1D" fill-opacity="0.08"/>
<path d="M141.097 197.112C140.471 197.112 139.897 197.009 139.375 196.804C138.861 196.599 138.418 196.295 138.045 195.894C137.681 195.493 137.396 194.998 137.191 194.41C136.995 193.813 136.897 193.131 136.897 192.366V191.694C136.897 190.966 136.995 190.317 137.191 189.748C137.396 189.179 137.681 188.698 138.045 188.306C138.418 187.905 138.861 187.601 139.375 187.396C139.897 187.191 140.471 187.088 141.097 187.088C141.731 187.088 142.305 187.191 142.819 187.396C143.332 187.601 143.771 187.9 144.135 188.292C144.508 188.684 144.793 189.169 144.989 189.748C145.194 190.317 145.297 190.966 145.297 191.694V192.366C145.297 193.131 145.194 193.808 144.989 194.396C144.793 194.984 144.508 195.479 144.135 195.88C143.771 196.281 143.327 196.589 142.805 196.804C142.291 197.009 141.722 197.112 141.097 197.112ZM141.097 195.908C141.517 195.908 141.899 195.838 142.245 195.698C142.59 195.549 142.889 195.329 143.141 195.04C143.393 194.741 143.584 194.373 143.715 193.934C143.855 193.486 143.925 192.963 143.925 192.366V191.694C143.925 191.134 143.855 190.644 143.715 190.224C143.575 189.795 143.379 189.44 143.127 189.16C142.884 188.871 142.59 188.656 142.245 188.516C141.899 188.367 141.517 188.292 141.097 188.292C140.677 188.292 140.294 188.362 139.949 188.502C139.603 188.642 139.305 188.857 139.053 189.146C138.801 189.426 138.605 189.781 138.465 190.21C138.334 190.63 138.269 191.125 138.269 191.694V192.366C138.269 192.963 138.339 193.486 138.479 193.934C138.619 194.373 138.815 194.741 139.067 195.04C139.319 195.329 139.617 195.549 139.963 195.698C140.308 195.838 140.686 195.908 141.097 195.908ZM149.51 194.774C148.521 194.774 147.807 194.564 147.368 194.144C146.929 193.715 146.71 193.061 146.71 192.184V190H147.97V192.1C147.97 192.669 148.082 193.066 148.306 193.29C148.53 193.514 148.931 193.626 149.51 193.626C149.809 193.626 150.089 193.607 150.35 193.57C150.621 193.533 150.854 193.491 151.05 193.444V190H152.31V197H151.05V194.592C150.854 194.639 150.621 194.681 150.35 194.718C150.089 194.755 149.809 194.774 149.51 194.774ZM154.404 197V190H155.664V195.46H155.692L158.744 190H160.424V197H159.164V191.54H159.136L156.084 197H154.404ZM165.171 197.112C164.237 197.112 163.491 196.818 162.931 196.23C162.371 195.633 162.091 194.765 162.091 193.626V193.234C162.091 192.702 162.165 192.231 162.315 191.82C162.464 191.409 162.669 191.059 162.931 190.77C163.201 190.481 163.528 190.261 163.911 190.112C164.293 189.963 164.713 189.888 165.171 189.888C165.609 189.888 165.997 189.949 166.333 190.07C166.678 190.182 166.972 190.336 167.215 190.532C167.467 190.728 167.663 190.961 167.803 191.232C167.952 191.503 168.055 191.792 168.111 192.1H166.795C166.692 191.801 166.515 191.549 166.263 191.344C166.02 191.139 165.679 191.036 165.241 191.036C164.681 191.036 164.233 191.218 163.897 191.582C163.57 191.937 163.407 192.487 163.407 193.234V193.626C163.407 194.429 163.575 195.021 163.911 195.404C164.247 195.777 164.69 195.964 165.241 195.964C165.679 195.964 166.02 195.857 166.263 195.642C166.515 195.418 166.692 195.124 166.795 194.76H168.111C168.055 195.105 167.952 195.423 167.803 195.712C167.663 195.992 167.467 196.239 167.215 196.454C166.972 196.659 166.678 196.823 166.333 196.944C165.997 197.056 165.609 197.112 165.171 197.112ZM170.993 197V191.148H168.753V190H174.493V191.148H172.253V197H170.993ZM175.759 197V190H177.019V195.46H177.047L180.099 190H181.779V197H180.519V191.54H180.491L177.439 197H175.759ZM185.28 197V191.148H183.04V190H188.78V191.148H186.54V197H185.28ZM190.046 197V190H191.306V192.24H192.706C193.667 192.24 194.372 192.45 194.82 192.87C195.277 193.29 195.506 193.873 195.506 194.62C195.506 195.357 195.277 195.941 194.82 196.37C194.363 196.79 193.658 197 192.706 197H190.046ZM192.636 193.388H191.306V195.852H192.636C193.205 195.852 193.607 195.749 193.84 195.544C194.073 195.339 194.19 195.031 194.19 194.62C194.19 194.219 194.069 193.915 193.826 193.71C193.583 193.495 193.187 193.388 192.636 193.388Z" fill="#5E6067" fill-opacity="0.4"/>
<rect x="15" y="48" width="92" height="32" rx="16" fill="#3988FF"/>
<path d="M36.0966 69.112C36.722 69.112 37.2913 69.0093 37.8046 68.804C38.3273 68.5893 38.7706 68.2813 39.1346 67.88C39.508 67.4787 39.7926 66.984 39.9886 66.396C40.194 65.808 40.2966 65.1313 40.2966 64.366V63.694C40.2966 62.966 40.194 62.3173 39.9886 61.748C39.7926 61.1693 39.508 60.684 39.1346 60.292C38.7706 59.9 38.332 59.6013 37.8186 59.396C37.3053 59.1907 36.7313 59.088 36.0966 59.088C35.4713 59.088 34.8973 59.1907 34.3746 59.396C33.8613 59.6013 33.418 59.9047 33.0446 60.306C32.6806 60.698 32.396 61.1787 32.1906 61.748C31.9946 62.3173 31.8966 62.966 31.8966 63.694V64.366C31.8966 65.1313 31.9946 65.8127 32.1906 66.41C32.396 66.998 32.6806 67.4927 33.0446 67.894C33.418 68.2953 33.8613 68.5987 34.3746 68.804C34.8973 69.0093 35.4713 69.112 36.0966 69.112ZM36.0966 67.908C35.686 67.908 35.308 67.838 34.9626 67.698C34.6173 67.5487 34.3186 67.3293 34.0666 67.04C33.8146 66.7413 33.6186 66.3727 33.4786 65.934C33.3386 65.486 33.2686 64.9633 33.2686 64.366V63.694C33.2686 63.1247 33.334 62.63 33.4646 62.21C33.6046 61.7807 33.8006 61.426 34.0526 61.146C34.3046 60.8567 34.6033 60.642 34.9486 60.502C35.294 60.362 35.6766 60.292 36.0966 60.292C36.5166 60.292 36.8993 60.3667 37.2446 60.516C37.59 60.656 37.884 60.8707 38.1266 61.16C38.3786 61.44 38.5746 61.7947 38.7146 62.224C38.8546 62.644 38.9246 63.134 38.9246 63.694V64.366C38.9246 64.9633 38.8546 65.486 38.7146 65.934C38.584 66.3727 38.3926 66.7413 38.1406 67.04C37.8886 67.3293 37.59 67.5487 37.2446 67.698C36.8993 67.838 36.5166 67.908 36.0966 67.908ZM44.5101 66.774C44.8087 66.774 45.0887 66.7553 45.3501 66.718C45.6207 66.6807 45.8541 66.6387 46.0501 66.592V69H47.3101V62H46.0501V65.444C45.8541 65.4907 45.6207 65.5327 45.3501 65.57C45.0887 65.6073 44.8087 65.626 44.5101 65.626C43.9314 65.626 43.5301 65.514 43.3061 65.29C43.0821 65.066 42.9701 64.6693 42.9701 64.1V62H41.7101V64.184C41.7101 65.0613 41.9294 65.7147 42.3681 66.144C42.8067 66.564 43.5207 66.774 44.5101 66.774ZM49.4035 69H51.0835L54.1355 63.54H54.1635V69H55.4235V62H53.7435L50.6915 67.46H50.6635V62H49.4035V69ZM60.1706 69.112C60.6093 69.112 60.9966 69.056 61.3326 68.944C61.6779 68.8227 61.9719 68.6593 62.2146 68.454C62.4666 68.2393 62.6626 67.992 62.8026 67.712C62.9519 67.4227 63.0546 67.1053 63.1106 66.76H61.7946C61.6919 67.124 61.5146 67.418 61.2626 67.642C61.0199 67.8567 60.6793 67.964 60.2406 67.964C59.6899 67.964 59.2466 67.7773 58.9106 67.404C58.5746 67.0213 58.4066 66.4287 58.4066 65.626V65.234C58.4066 64.4873 58.5699 63.9367 58.8966 63.582C59.2326 63.218 59.6806 63.036 60.2406 63.036C60.6793 63.036 61.0199 63.1387 61.2626 63.344C61.5146 63.5493 61.6919 63.8013 61.7946 64.1H63.1106C63.0546 63.792 62.9519 63.5027 62.8026 63.232C62.6626 62.9613 62.4666 62.728 62.2146 62.532C61.9719 62.336 61.6779 62.182 61.3326 62.07C60.9966 61.9487 60.6093 61.888 60.1706 61.888C59.7133 61.888 59.2933 61.9627 58.9106 62.112C58.5279 62.2613 58.2013 62.4807 57.9306 62.77C57.6693 63.0593 57.4639 63.4093 57.3146 63.82C57.1653 64.2307 57.0906 64.702 57.0906 65.234V65.626C57.0906 66.7647 57.3706 67.6327 57.9306 68.23C58.4906 68.818 59.2373 69.112 60.1706 69.112ZM65.993 69H67.253V63.148H69.493V62H63.753V63.148H65.993V69ZM70.759 69H72.439L75.491 63.54H75.519V69H76.779V62H75.099L72.047 67.46H72.019V62H70.759V69ZM80.2801 69H81.5401V63.148H83.7801V62H78.0401V63.148H80.2801V69ZM85.0461 69H87.7061C88.6581 69 89.3628 68.79 89.8201 68.37C90.2774 67.9407 90.5061 67.3573 90.5061 66.62C90.5061 65.8733 90.2774 65.29 89.8201 64.87C89.3721 64.45 88.6674 64.24 87.7061 64.24H86.3061V62H85.0461V69ZM87.6361 65.388C88.1868 65.388 88.5834 65.4953 88.8261 65.71C89.0688 65.9153 89.1901 66.2187 89.1901 66.62C89.1901 67.0307 89.0734 67.3387 88.8401 67.544C88.6068 67.7493 88.2054 67.852 87.6361 67.852H86.3061V65.388H87.6361Z" fill="white"/>
<rect x="15" y="104" width="92" height="40" rx="12" fill="#3988FF"/>
<path d="M36.0966 129.112C36.722 129.112 37.2913 129.009 37.8046 128.804C38.3273 128.589 38.7706 128.281 39.1346 127.88C39.508 127.479 39.7926 126.984 39.9886 126.396C40.194 125.808 40.2966 125.131 40.2966 124.366V123.694C40.2966 122.966 40.194 122.317 39.9886 121.748C39.7926 121.169 39.508 120.684 39.1346 120.292C38.7706 119.9 38.332 119.601 37.8186 119.396C37.3053 119.191 36.7313 119.088 36.0966 119.088C35.4713 119.088 34.8973 119.191 34.3746 119.396C33.8613 119.601 33.418 119.905 33.0446 120.306C32.6806 120.698 32.396 121.179 32.1906 121.748C31.9946 122.317 31.8966 122.966 31.8966 123.694V124.366C31.8966 125.131 31.9946 125.813 32.1906 126.41C32.396 126.998 32.6806 127.493 33.0446 127.894C33.418 128.295 33.8613 128.599 34.3746 128.804C34.8973 129.009 35.4713 129.112 36.0966 129.112ZM36.0966 127.908C35.686 127.908 35.308 127.838 34.9626 127.698C34.6173 127.549 34.3186 127.329 34.0666 127.04C33.8146 126.741 33.6186 126.373 33.4786 125.934C33.3386 125.486 33.2686 124.963 33.2686 124.366V123.694C33.2686 123.125 33.334 122.63 33.4646 122.21C33.6046 121.781 33.8006 121.426 34.0526 121.146C34.3046 120.857 34.6033 120.642 34.9486 120.502C35.294 120.362 35.6766 120.292 36.0966 120.292C36.5166 120.292 36.8993 120.367 37.2446 120.516C37.59 120.656 37.884 120.871 38.1266 121.16C38.3786 121.44 38.5746 121.795 38.7146 122.224C38.8546 122.644 38.9246 123.134 38.9246 123.694V124.366C38.9246 124.963 38.8546 125.486 38.7146 125.934C38.584 126.373 38.3926 126.741 38.1406 127.04C37.8886 127.329 37.59 127.549 37.2446 127.698C36.8993 127.838 36.5166 127.908 36.0966 127.908ZM44.5101 126.774C44.8087 126.774 45.0887 126.755 45.3501 126.718C45.6207 126.681 45.8541 126.639 46.0501 126.592V129H47.3101V122H46.0501V125.444C45.8541 125.491 45.6207 125.533 45.3501 125.57C45.0887 125.607 44.8087 125.626 44.5101 125.626C43.9314 125.626 43.5301 125.514 43.3061 125.29C43.0821 125.066 42.9701 124.669 42.9701 124.1V122H41.7101V124.184C41.7101 125.061 41.9294 125.715 42.3681 126.144C42.8067 126.564 43.5207 126.774 44.5101 126.774ZM49.4035 129H51.0835L54.1355 123.54H54.1635V129H55.4235V122H53.7435L50.6915 127.46H50.6635V122H49.4035V129ZM60.1706 129.112C60.6093 129.112 60.9966 129.056 61.3326 128.944C61.6779 128.823 61.9719 128.659 62.2146 128.454C62.4666 128.239 62.6626 127.992 62.8026 127.712C62.9519 127.423 63.0546 127.105 63.1106 126.76H61.7946C61.6919 127.124 61.5146 127.418 61.2626 127.642C61.0199 127.857 60.6793 127.964 60.2406 127.964C59.6899 127.964 59.2466 127.777 58.9106 127.404C58.5746 127.021 58.4066 126.429 58.4066 125.626V125.234C58.4066 124.487 58.5699 123.937 58.8966 123.582C59.2326 123.218 59.6806 123.036 60.2406 123.036C60.6793 123.036 61.0199 123.139 61.2626 123.344C61.5146 123.549 61.6919 123.801 61.7946 124.1H63.1106C63.0546 123.792 62.9519 123.503 62.8026 123.232C62.6626 122.961 62.4666 122.728 62.2146 122.532C61.9719 122.336 61.6779 122.182 61.3326 122.07C60.9966 121.949 60.6093 121.888 60.1706 121.888C59.7133 121.888 59.2933 121.963 58.9106 122.112C58.5279 122.261 58.2013 122.481 57.9306 122.77C57.6693 123.059 57.4639 123.409 57.3146 123.82C57.1653 124.231 57.0906 124.702 57.0906 125.234V125.626C57.0906 126.765 57.3706 127.633 57.9306 128.23C58.4906 128.818 59.2373 129.112 60.1706 129.112ZM65.993 129H67.253V123.148H69.493V122H63.753V123.148H65.993V129ZM70.759 129H72.439L75.491 123.54H75.519V129H76.779V122H75.099L72.047 127.46H72.019V122H70.759V129ZM80.2801 129H81.5401V123.148H83.7801V122H78.0401V123.148H80.2801V129ZM85.0461 129H87.7061C88.6581 129 89.3628 128.79 89.8201 128.37C90.2774 127.941 90.5061 127.357 90.5061 126.62C90.5061 125.873 90.2774 125.29 89.8201 124.87C89.3721 124.45 88.6674 124.24 87.7061 124.24H86.3061V122H85.0461V129ZM87.6361 125.388C88.1868 125.388 88.5834 125.495 88.8261 125.71C89.0688 125.915 89.1901 126.219 89.1901 126.62C89.1901 127.031 89.0734 127.339 88.8401 127.544C88.6068 127.749 88.2054 127.852 87.6361 127.852H86.3061V125.388H87.6361Z" fill="white"/>
<rect x="15" y="168" width="92" height="48" rx="16" fill="#3988FF"/>
<path d="M36.0966 197.112C36.722 197.112 37.2913 197.009 37.8046 196.804C38.3273 196.589 38.7706 196.281 39.1346 195.88C39.508 195.479 39.7926 194.984 39.9886 194.396C40.194 193.808 40.2966 193.131 40.2966 192.366V191.694C40.2966 190.966 40.194 190.317 39.9886 189.748C39.7926 189.169 39.508 188.684 39.1346 188.292C38.7706 187.9 38.332 187.601 37.8186 187.396C37.3053 187.191 36.7313 187.088 36.0966 187.088C35.4713 187.088 34.8973 187.191 34.3746 187.396C33.8613 187.601 33.418 187.905 33.0446 188.306C32.6806 188.698 32.396 189.179 32.1906 189.748C31.9946 190.317 31.8966 190.966 31.8966 191.694V192.366C31.8966 193.131 31.9946 193.813 32.1906 194.41C32.396 194.998 32.6806 195.493 33.0446 195.894C33.418 196.295 33.8613 196.599 34.3746 196.804C34.8973 197.009 35.4713 197.112 36.0966 197.112ZM36.0966 195.908C35.686 195.908 35.308 195.838 34.9626 195.698C34.6173 195.549 34.3186 195.329 34.0666 195.04C33.8146 194.741 33.6186 194.373 33.4786 193.934C33.3386 193.486 33.2686 192.963 33.2686 192.366V191.694C33.2686 191.125 33.334 190.63 33.4646 190.21C33.6046 189.781 33.8006 189.426 34.0526 189.146C34.3046 188.857 34.6033 188.642 34.9486 188.502C35.294 188.362 35.6766 188.292 36.0966 188.292C36.5166 188.292 36.8993 188.367 37.2446 188.516C37.59 188.656 37.884 188.871 38.1266 189.16C38.3786 189.44 38.5746 189.795 38.7146 190.224C38.8546 190.644 38.9246 191.134 38.9246 191.694V192.366C38.9246 192.963 38.8546 193.486 38.7146 193.934C38.584 194.373 38.3926 194.741 38.1406 195.04C37.8886 195.329 37.59 195.549 37.2446 195.698C36.8993 195.838 36.5166 195.908 36.0966 195.908ZM44.5101 194.774C44.8087 194.774 45.0887 194.755 45.3501 194.718C45.6207 194.681 45.8541 194.639 46.0501 194.592V197H47.3101V190H46.0501V193.444C45.8541 193.491 45.6207 193.533 45.3501 193.57C45.0887 193.607 44.8087 193.626 44.5101 193.626C43.9314 193.626 43.5301 193.514 43.3061 193.29C43.0821 193.066 42.9701 192.669 42.9701 192.1V190H41.7101V192.184C41.7101 193.061 41.9294 193.715 42.3681 194.144C42.8067 194.564 43.5207 194.774 44.5101 194.774ZM49.4035 197H51.0835L54.1355 191.54H54.1635V197H55.4235V190H53.7435L50.6915 195.46H50.6635V190H49.4035V197ZM60.1706 197.112C60.6093 197.112 60.9966 197.056 61.3326 196.944C61.6779 196.823 61.9719 196.659 62.2146 196.454C62.4666 196.239 62.6626 195.992 62.8026 195.712C62.9519 195.423 63.0546 195.105 63.1106 194.76H61.7946C61.6919 195.124 61.5146 195.418 61.2626 195.642C61.0199 195.857 60.6793 195.964 60.2406 195.964C59.6899 195.964 59.2466 195.777 58.9106 195.404C58.5746 195.021 58.4066 194.429 58.4066 193.626V193.234C58.4066 192.487 58.5699 191.937 58.8966 191.582C59.2326 191.218 59.6806 191.036 60.2406 191.036C60.6793 191.036 61.0199 191.139 61.2626 191.344C61.5146 191.549 61.6919 191.801 61.7946 192.1H63.1106C63.0546 191.792 62.9519 191.503 62.8026 191.232C62.6626 190.961 62.4666 190.728 62.2146 190.532C61.9719 190.336 61.6779 190.182 61.3326 190.07C60.9966 189.949 60.6093 189.888 60.1706 189.888C59.7133 189.888 59.2933 189.963 58.9106 190.112C58.5279 190.261 58.2013 190.481 57.9306 190.77C57.6693 191.059 57.4639 191.409 57.3146 191.82C57.1653 192.231 57.0906 192.702 57.0906 193.234V193.626C57.0906 194.765 57.3706 195.633 57.9306 196.23C58.4906 196.818 59.2373 197.112 60.1706 197.112ZM65.993 197H67.253V191.148H69.493V190H63.753V191.148H65.993V197ZM70.759 197H72.439L75.491 191.54H75.519V197H76.779V190H75.099L72.047 195.46H72.019V190H70.759V197ZM80.2801 197H81.5401V191.148H83.7801V190H78.0401V191.148H80.2801V197ZM85.0461 197H87.7061C88.6581 197 89.3628 196.79 89.8201 196.37C90.2774 195.941 90.5061 195.357 90.5061 194.62C90.5061 193.873 90.2774 193.29 89.8201 192.87C89.3721 192.45 88.6674 192.24 87.7061 192.24H86.3061V190H85.0461V197ZM87.6361 193.388C88.1868 193.388 88.5834 193.495 88.8261 193.71C89.0688 193.915 89.1901 194.219 89.1901 194.62C89.1901 195.031 89.0734 195.339 88.8401 195.544C88.6068 195.749 88.2054 195.852 87.6361 195.852H86.3061V193.388H87.6361Z" fill="white"/>
</svg>
