<svg width="531" height="432" viewBox="0 0 531 432" fill="none" xmlns="http://www.w3.org/2000/svg">
<rect width="531" height="432" fill="white"/>
<rect x="73.5" y="264.5" width="387" height="131" rx="4.5" fill="#1D1D1D" fill-opacity="0.3"/>
<rect x="73.5" y="264.5" width="387" height="131" rx="4.5" stroke="#9747FF" stroke-dasharray="10 5"/>
<rect x="117" y="284" width="36" height="20" rx="10" fill="#3988FF"/>
<rect x="130" y="287" width="20" height="14" rx="7" fill="white"/>
<rect x="205" y="284" width="36" height="20" rx="10" fill="#1D1D1D" fill-opacity="0.15"/>
<rect x="208" y="287" width="20" height="14" rx="7" fill="white"/>
<rect x="293" y="284" width="36" height="20" rx="10" fill="#3988FF"/>
<rect x="306" y="287" width="20" height="14" rx="7" fill="white"/>
<rect x="381" y="284" width="36" height="20" rx="10" fill="white" fill-opacity="0.15"/>
<rect x="384" y="287" width="20" height="14" rx="7" fill="white"/>
<rect x="117" y="356" width="36" height="20" rx="10" fill="#3988FF" fill-opacity="0.2"/>
<rect x="130" y="359" width="20" height="14" rx="7" fill="white"/>
<rect x="205" y="356" width="36" height="20" rx="10" fill="#1D1D1D" fill-opacity="0.08"/>
<rect x="208" y="359" width="20" height="14" rx="7" fill="white"/>
<rect x="293" y="356" width="36" height="20" rx="10" fill="#3988FF" fill-opacity="0.2"/>
<rect x="306" y="359" width="20" height="14" rx="7" fill="white"/>
<rect x="381" y="356" width="36" height="20" rx="10" fill="white" fill-opacity="0.08"/>
<rect x="384" y="359" width="20" height="14" rx="7" fill="white" fill-opacity="0.15"/>
<path d="M81.32 79.6H85.8L93.8 102H89.704L87.848 96.4H79.048L77.16 102H73.32L81.32 79.6ZM86.696 92.88L83.528 83.28H83.464L80.232 92.88H86.696ZM101.726 102C100.852 102 100.116 101.893 99.5183 101.68C98.9209 101.467 98.4196 101.189 98.0143 100.848C97.6303 100.507 97.3316 100.133 97.1183 99.728C96.9049 99.3013 96.7449 98.896 96.6383 98.512C96.5529 98.128 96.4996 97.776 96.4783 97.456C96.4569 97.136 96.4463 96.8907 96.4463 96.72V89.392H93.5663V86H96.4463V81.52H100.158V86H104.126V89.392H100.158V96.208C100.158 96.3787 100.169 96.6027 100.19 96.88C100.212 97.1573 100.297 97.424 100.446 97.68C100.596 97.936 100.82 98.16 101.118 98.352C101.417 98.5227 101.844 98.608 102.398 98.608H104.446V102H101.726ZM113.738 102.32C111.327 102.32 109.439 101.637 108.074 100.272C106.73 98.8853 106.058 96.912 106.058 94.352V93.648C106.058 92.3893 106.228 91.2693 106.57 90.288C106.932 89.3067 107.444 88.4747 108.106 87.792C108.788 87.1093 109.599 86.5867 110.538 86.224C111.476 85.8613 112.543 85.68 113.738 85.68C116.148 85.68 118.026 86.3733 119.37 87.76C120.735 89.1253 121.418 91.088 121.418 93.648V94.352C121.418 95.6107 121.236 96.7307 120.874 97.712C120.532 98.6933 120.02 99.5253 119.338 100.208C118.676 100.891 117.866 101.413 116.906 101.776C115.967 102.139 114.911 102.32 113.738 102.32ZM113.738 98.928C114.911 98.928 115.828 98.5653 116.49 97.84C117.172 97.0933 117.514 95.9307 117.514 94.352V93.648C117.514 92.112 117.172 90.9707 116.49 90.224C115.807 89.456 114.89 89.072 113.738 89.072C112.564 89.072 111.636 89.4453 110.954 90.192C110.292 90.9173 109.962 92.0693 109.962 93.648V94.352C109.962 95.888 110.303 97.04 110.986 97.808C111.668 98.5547 112.586 98.928 113.738 98.928ZM124.611 86H127.491L127.811 87.92H127.875C128.494 87.1947 129.187 86.64 129.955 86.256C130.745 85.872 131.587 85.68 132.483 85.68C133.571 85.68 134.542 85.904 135.395 86.352C136.249 86.7787 136.931 87.4293 137.443 88.304C137.998 87.472 138.713 86.832 139.587 86.384C140.483 85.9147 141.497 85.68 142.627 85.68C144.441 85.68 145.891 86.2773 146.979 87.472C148.067 88.6453 148.611 90.3947 148.611 92.72V102H144.899V92.72C144.899 91.4827 144.622 90.5653 144.067 89.968C143.534 89.3707 142.787 89.072 141.827 89.072C140.867 89.072 140.067 89.4027 139.427 90.064C138.787 90.7253 138.467 91.6107 138.467 92.72V102H134.755V92.72C134.755 91.504 134.478 90.5973 133.923 90C133.369 89.3813 132.622 89.072 131.683 89.072C130.723 89.072 129.923 89.4027 129.283 90.064C128.643 90.7253 128.323 91.6107 128.323 92.72V102H124.611V86ZM158.691 102.288C156.345 102.288 154.617 101.819 153.507 100.88C152.419 99.92 151.801 98.5867 151.651 96.88H155.555C155.726 97.6907 156.025 98.288 156.451 98.672C156.878 99.0347 157.571 99.216 158.531 99.216C159.534 99.216 160.227 99.0667 160.611 98.768C160.995 98.448 161.187 98.032 161.187 97.52C161.187 96.9867 160.953 96.5813 160.483 96.304C160.035 96.0053 159.47 95.76 158.787 95.568C158.105 95.376 157.369 95.1947 156.579 95.024C155.79 94.832 155.054 94.5653 154.371 94.224C153.689 93.8613 153.113 93.3813 152.643 92.784C152.195 92.1867 151.971 91.376 151.971 90.352C151.971 89.6907 152.099 89.0827 152.355 88.528C152.611 87.952 152.995 87.4613 153.507 87.056C154.019 86.6293 154.659 86.2987 155.427 86.064C156.217 85.8293 157.145 85.712 158.211 85.712C160.43 85.712 162.062 86.1707 163.107 87.088C164.153 88.0053 164.761 89.2427 164.931 90.8H161.027C160.857 90.1173 160.569 89.616 160.163 89.296C159.779 88.9547 159.129 88.784 158.211 88.784C157.337 88.784 156.729 88.9227 156.387 89.2C156.046 89.4773 155.875 89.8507 155.875 90.32C155.875 90.832 156.099 91.216 156.547 91.472C157.017 91.7067 157.593 91.9093 158.275 92.08C158.958 92.2507 159.694 92.432 160.483 92.624C161.273 92.7947 162.009 93.0613 162.691 93.424C163.374 93.7867 163.939 94.288 164.387 94.928C164.857 95.5467 165.091 96.4 165.091 97.488C165.091 98.1707 164.953 98.8107 164.675 99.408C164.419 99.984 164.025 100.485 163.491 100.912C162.979 101.339 162.318 101.68 161.507 101.936C160.718 102.171 159.779 102.288 158.691 102.288Z" fill="black"/>
<rect x="73" y="142" width="385" height="1" rx="0.5" fill="#5E6067" fill-opacity="0.4"/>
<path d="M116.2 237.284H112.434L111.538 240H110.39L113.666 230.2H115.038L118.342 240H117.124L116.2 237.284ZM112.798 236.276H115.878L114.436 231.67H114.268L112.798 236.276ZM124.567 234.078C124.352 234.003 124.119 233.943 123.867 233.896C123.624 233.84 123.382 233.812 123.139 233.812C122.224 233.812 121.543 234.027 121.095 234.456C120.647 234.885 120.423 235.567 120.423 236.5C120.423 236.911 120.488 237.279 120.619 237.606C120.75 237.923 120.936 238.194 121.179 238.418C121.422 238.642 121.711 238.815 122.047 238.936C122.392 239.057 122.77 239.118 123.181 239.118C123.62 239.118 124.044 239.043 124.455 238.894C124.875 238.745 125.225 238.549 125.505 238.306L125.995 239.118C125.864 239.23 125.701 239.347 125.505 239.468C125.309 239.589 125.08 239.706 124.819 239.818C124.567 239.921 124.282 240.005 123.965 240.07C123.657 240.135 123.321 240.168 122.957 240.168C122.35 240.168 121.814 240.084 121.347 239.916C120.89 239.739 120.507 239.491 120.199 239.174C119.891 238.847 119.658 238.46 119.499 238.012C119.34 237.555 119.261 237.051 119.261 236.5C119.261 235.912 119.34 235.389 119.499 234.932C119.667 234.475 119.905 234.092 120.213 233.784C120.521 233.476 120.894 233.243 121.333 233.084C121.772 232.916 122.262 232.832 122.803 232.832C123.494 232.832 124.054 232.893 124.483 233.014C124.922 233.135 125.29 233.271 125.589 233.42L125.575 233.462V235.408H124.567V234.078ZM127.109 233H128.775V231.614L129.867 231.306V233H133.605V233.938H129.867V237.242C129.867 237.923 130.031 238.427 130.357 238.754C130.693 239.081 131.169 239.244 131.785 239.244C132.205 239.244 132.569 239.165 132.877 239.006C133.195 238.847 133.479 238.675 133.731 238.488L134.095 239.314C133.769 239.575 133.377 239.785 132.919 239.944C132.471 240.103 132.009 240.182 131.533 240.182C131.16 240.182 130.805 240.126 130.469 240.014C130.143 239.911 129.853 239.748 129.601 239.524C129.349 239.3 129.149 239.015 128.999 238.67C128.85 238.315 128.775 237.895 128.775 237.41V233.938H127.109V233ZM136.4 240V239.062H138.836V233.938H136.4V233H139.956V239.062H142.336V240H136.4ZM138.458 231.012C138.458 230.76 138.542 230.545 138.71 230.368C138.878 230.181 139.093 230.088 139.354 230.088C139.625 230.088 139.849 230.181 140.026 230.368C140.213 230.545 140.306 230.76 140.306 231.012C140.306 231.255 140.213 231.46 140.026 231.628C139.849 231.796 139.625 231.88 139.354 231.88C139.093 231.88 138.878 231.796 138.71 231.628C138.542 231.46 138.458 231.255 138.458 231.012ZM147.413 238.642H147.567L149.765 233H150.983L148.029 240H146.797L143.787 233H145.075L147.413 238.642ZM158.845 239.118C158.677 239.267 158.476 239.407 158.243 239.538C158.019 239.669 157.772 239.781 157.501 239.874C157.23 239.967 156.946 240.037 156.647 240.084C156.358 240.14 156.064 240.168 155.765 240.168C155.205 240.168 154.71 240.084 154.281 239.916C153.852 239.739 153.492 239.491 153.203 239.174C152.914 238.847 152.694 238.46 152.545 238.012C152.396 237.564 152.321 237.06 152.321 236.5C152.321 235.912 152.4 235.389 152.559 234.932C152.727 234.475 152.965 234.092 153.273 233.784C153.581 233.476 153.954 233.243 154.393 233.084C154.832 232.916 155.322 232.832 155.863 232.832C156.255 232.832 156.642 232.883 157.025 232.986C157.408 233.089 157.744 233.285 158.033 233.574C158.332 233.854 158.56 234.246 158.719 234.75C158.878 235.245 158.934 235.889 158.887 236.682H153.469C153.469 237.522 153.693 238.152 154.141 238.572C154.598 238.983 155.205 239.188 155.961 239.188C156.213 239.188 156.46 239.16 156.703 239.104C156.955 239.039 157.193 238.964 157.417 238.88C157.641 238.796 157.837 238.703 158.005 238.6C158.182 238.497 158.318 238.404 158.411 238.32L158.845 239.118ZM155.891 233.756C155.583 233.756 155.289 233.789 155.009 233.854C154.738 233.919 154.496 234.031 154.281 234.19C154.076 234.339 153.903 234.54 153.763 234.792C153.632 235.035 153.548 235.338 153.511 235.702H157.865C157.818 235.086 157.618 234.61 157.263 234.274C156.918 233.929 156.46 233.756 155.891 233.756Z" fill="#1E1E21" fill-opacity="0.65"/>
<path d="M192.252 230.2H198.972V231.236H196.186V238.964H198.972V240H192.252V238.964H195.024V231.236H192.252V230.2ZM200.968 235.45C200.968 235.366 200.964 235.259 200.954 235.128C200.954 234.988 200.95 234.848 200.94 234.708C200.931 234.559 200.917 234.414 200.898 234.274C200.889 234.134 200.875 234.013 200.856 233.91H199.918V233H201.794L201.92 234.134H201.99C202.084 233.975 202.205 233.821 202.354 233.672C202.513 233.513 202.695 233.373 202.9 233.252C203.106 233.121 203.334 233.019 203.586 232.944C203.838 232.869 204.104 232.832 204.384 232.832C204.814 232.832 205.192 232.879 205.518 232.972C205.854 233.065 206.13 233.233 206.344 233.476C206.568 233.709 206.736 234.031 206.848 234.442C206.96 234.843 207.016 235.357 207.016 235.982V240H205.924V236.192C205.924 235.417 205.798 234.834 205.546 234.442C205.294 234.05 204.837 233.854 204.174 233.854C203.932 233.854 203.694 233.905 203.46 234.008C203.236 234.101 203.031 234.227 202.844 234.386C202.658 234.545 202.494 234.731 202.354 234.946C202.214 235.151 202.112 235.371 202.046 235.604V240H200.968V235.45ZM209.433 233.546C209.834 233.313 210.287 233.145 210.791 233.042C211.295 232.939 211.79 232.888 212.275 232.888C212.751 232.888 213.138 232.963 213.437 233.112C213.745 233.261 213.983 233.457 214.151 233.7C214.328 233.933 214.445 234.204 214.501 234.512C214.566 234.811 214.599 235.114 214.599 235.422C214.599 235.777 214.59 236.155 214.571 236.556C214.552 236.957 214.538 237.359 214.529 237.76C214.529 238.227 214.557 238.67 214.613 239.09H215.551V240H213.689L213.563 238.95H213.493C213.437 239.034 213.353 239.141 213.241 239.272C213.129 239.403 212.98 239.533 212.793 239.664C212.616 239.785 212.396 239.893 212.135 239.986C211.874 240.079 211.566 240.126 211.211 240.126C210.52 240.126 209.974 239.949 209.573 239.594C209.172 239.239 208.971 238.754 208.971 238.138C208.971 237.662 209.074 237.265 209.279 236.948C209.494 236.631 209.797 236.388 210.189 236.22C210.581 236.052 211.052 235.954 211.603 235.926C212.163 235.898 212.788 235.935 213.479 236.038C213.526 235.609 213.53 235.254 213.493 234.974C213.465 234.685 213.39 234.456 213.269 234.288C213.157 234.12 212.994 234.003 212.779 233.938C212.574 233.863 212.317 233.826 212.009 233.826C211.589 233.826 211.188 233.887 210.805 234.008C210.422 234.12 210.082 234.237 209.783 234.358L209.433 233.546ZM211.491 239.188C211.752 239.188 211.995 239.146 212.219 239.062C212.443 238.978 212.639 238.871 212.807 238.74C212.975 238.609 213.115 238.469 213.227 238.32C213.339 238.161 213.423 238.012 213.479 237.872V236.892C212.994 236.808 212.546 236.766 212.135 236.766C211.724 236.766 211.37 236.813 211.071 236.906C210.772 236.99 210.539 237.125 210.371 237.312C210.203 237.499 210.119 237.741 210.119 238.04C210.119 238.348 210.222 238.619 210.427 238.852C210.642 239.076 210.996 239.188 211.491 239.188ZM222.321 234.078C222.107 234.003 221.873 233.943 221.621 233.896C221.379 233.84 221.136 233.812 220.893 233.812C219.979 233.812 219.297 234.027 218.849 234.456C218.401 234.885 218.177 235.567 218.177 236.5C218.177 236.911 218.243 237.279 218.373 237.606C218.504 237.923 218.691 238.194 218.933 238.418C219.176 238.642 219.465 238.815 219.801 238.936C220.147 239.057 220.525 239.118 220.935 239.118C221.374 239.118 221.799 239.043 222.209 238.894C222.629 238.745 222.979 238.549 223.259 238.306L223.749 239.118C223.619 239.23 223.455 239.347 223.259 239.468C223.063 239.589 222.835 239.706 222.573 239.818C222.321 239.921 222.037 240.005 221.719 240.07C221.411 240.135 221.075 240.168 220.711 240.168C220.105 240.168 219.568 240.084 219.101 239.916C218.644 239.739 218.261 239.491 217.953 239.174C217.645 238.847 217.412 238.46 217.253 238.012C217.095 237.555 217.015 237.051 217.015 236.5C217.015 235.912 217.095 235.389 217.253 234.932C217.421 234.475 217.659 234.092 217.967 233.784C218.275 233.476 218.649 233.243 219.087 233.084C219.526 232.916 220.016 232.832 220.557 232.832C221.248 232.832 221.808 232.893 222.237 233.014C222.676 233.135 223.045 233.271 223.343 233.42L223.329 233.462V235.408H222.321V234.078ZM224.864 233H226.53V231.614L227.622 231.306V233H231.36V233.938H227.622V237.242C227.622 237.923 227.785 238.427 228.112 238.754C228.448 239.081 228.924 239.244 229.54 239.244C229.96 239.244 230.324 239.165 230.632 239.006C230.949 238.847 231.234 238.675 231.486 238.488L231.85 239.314C231.523 239.575 231.131 239.785 230.674 239.944C230.226 240.103 229.764 240.182 229.288 240.182C228.915 240.182 228.56 240.126 228.224 240.014C227.897 239.911 227.608 239.748 227.356 239.524C227.104 239.3 226.903 239.015 226.754 238.67C226.605 238.315 226.53 237.895 226.53 237.41V233.938H224.864V233ZM234.155 240V239.062H236.591V233.938H234.155V233H237.711V239.062H240.091V240H234.155ZM236.213 231.012C236.213 230.76 236.297 230.545 236.465 230.368C236.633 230.181 236.847 230.088 237.109 230.088C237.379 230.088 237.603 230.181 237.781 230.368C237.967 230.545 238.061 230.76 238.061 231.012C238.061 231.255 237.967 231.46 237.781 231.628C237.603 231.796 237.379 231.88 237.109 231.88C236.847 231.88 236.633 231.796 236.465 231.628C236.297 231.46 236.213 231.255 236.213 231.012ZM245.167 238.642H245.321L247.519 233H248.737L245.783 240H244.551L241.541 233H242.829L245.167 238.642ZM256.6 239.118C256.432 239.267 256.231 239.407 255.998 239.538C255.774 239.669 255.526 239.781 255.256 239.874C254.985 239.967 254.7 240.037 254.402 240.084C254.112 240.14 253.818 240.168 253.52 240.168C252.96 240.168 252.465 240.084 252.036 239.916C251.606 239.739 251.247 239.491 250.958 239.174C250.668 238.847 250.449 238.46 250.3 238.012C250.15 237.564 250.076 237.06 250.076 236.5C250.076 235.912 250.155 235.389 250.314 234.932C250.482 234.475 250.72 234.092 251.028 233.784C251.336 233.476 251.709 233.243 252.148 233.084C252.586 232.916 253.076 232.832 253.618 232.832C254.01 232.832 254.397 232.883 254.78 232.986C255.162 233.089 255.498 233.285 255.788 233.574C256.086 233.854 256.315 234.246 256.474 234.75C256.632 235.245 256.688 235.889 256.642 236.682H251.224C251.224 237.522 251.448 238.152 251.896 238.572C252.353 238.983 252.96 239.188 253.716 239.188C253.968 239.188 254.215 239.16 254.458 239.104C254.71 239.039 254.948 238.964 255.172 238.88C255.396 238.796 255.592 238.703 255.76 238.6C255.937 238.497 256.072 238.404 256.166 238.32L256.6 239.118ZM253.646 233.756C253.338 233.756 253.044 233.789 252.764 233.854C252.493 233.919 252.25 234.031 252.036 234.19C251.83 234.339 251.658 234.54 251.518 234.792C251.387 235.035 251.303 235.338 251.266 235.702H255.62C255.573 235.086 255.372 234.61 255.018 234.274C254.672 233.929 254.215 233.756 253.646 233.756Z" fill="#1E1E21" fill-opacity="0.65"/>
<path d="M278.532 230.2C278.887 230.153 279.255 230.125 279.638 230.116C280.03 230.097 280.361 230.088 280.632 230.088C281.481 230.088 282.191 230.209 282.76 230.452C283.339 230.695 283.801 231.035 284.146 231.474C284.501 231.903 284.753 232.421 284.902 233.028C285.061 233.635 285.14 234.302 285.14 235.03C285.14 235.693 285.07 236.332 284.93 236.948C284.79 237.555 284.547 238.096 284.202 238.572C283.857 239.039 283.39 239.417 282.802 239.706C282.223 239.986 281.495 240.126 280.618 240.126C280.497 240.126 280.338 240.121 280.142 240.112C279.946 240.112 279.745 240.103 279.54 240.084C279.335 240.075 279.139 240.065 278.952 240.056C278.765 240.047 278.625 240.033 278.532 240.014V230.2ZM280.688 231.124C280.557 231.124 280.389 231.129 280.184 231.138C279.988 231.147 279.825 231.166 279.694 231.194V239.034C279.741 239.043 279.806 239.053 279.89 239.062C279.983 239.062 280.077 239.067 280.17 239.076C280.263 239.076 280.352 239.081 280.436 239.09C280.529 239.09 280.604 239.09 280.66 239.09C281.341 239.09 281.892 238.978 282.312 238.754C282.741 238.53 283.073 238.231 283.306 237.858C283.539 237.475 283.698 237.041 283.782 236.556C283.866 236.061 283.908 235.553 283.908 235.03C283.908 234.573 283.871 234.115 283.796 233.658C283.721 233.191 283.567 232.771 283.334 232.398C283.11 232.025 282.783 231.721 282.354 231.488C281.934 231.245 281.379 231.124 280.688 231.124ZM287.178 233.546C287.58 233.313 288.032 233.145 288.536 233.042C289.04 232.939 289.535 232.888 290.02 232.888C290.496 232.888 290.884 232.963 291.182 233.112C291.49 233.261 291.728 233.457 291.896 233.7C292.074 233.933 292.19 234.204 292.246 234.512C292.312 234.811 292.344 235.114 292.344 235.422C292.344 235.777 292.335 236.155 292.316 236.556C292.298 236.957 292.284 237.359 292.274 237.76C292.274 238.227 292.302 238.67 292.358 239.09H293.296V240H291.434L291.308 238.95H291.238C291.182 239.034 291.098 239.141 290.986 239.272C290.874 239.403 290.725 239.533 290.538 239.664C290.361 239.785 290.142 239.893 289.88 239.986C289.619 240.079 289.311 240.126 288.956 240.126C288.266 240.126 287.72 239.949 287.318 239.594C286.917 239.239 286.716 238.754 286.716 238.138C286.716 237.662 286.819 237.265 287.024 236.948C287.239 236.631 287.542 236.388 287.934 236.22C288.326 236.052 288.798 235.954 289.348 235.926C289.908 235.898 290.534 235.935 291.224 236.038C291.271 235.609 291.276 235.254 291.238 234.974C291.21 234.685 291.136 234.456 291.014 234.288C290.902 234.12 290.739 234.003 290.524 233.938C290.319 233.863 290.062 233.826 289.754 233.826C289.334 233.826 288.933 233.887 288.55 234.008C288.168 234.12 287.827 234.237 287.528 234.358L287.178 233.546ZM289.236 239.188C289.498 239.188 289.74 239.146 289.964 239.062C290.188 238.978 290.384 238.871 290.552 238.74C290.72 238.609 290.86 238.469 290.972 238.32C291.084 238.161 291.168 238.012 291.224 237.872V236.892C290.739 236.808 290.291 236.766 289.88 236.766C289.47 236.766 289.115 236.813 288.816 236.906C288.518 236.99 288.284 237.125 288.116 237.312C287.948 237.499 287.864 237.741 287.864 238.04C287.864 238.348 287.967 238.619 288.172 238.852C288.387 239.076 288.742 239.188 289.236 239.188ZM294.845 240V239.062H296.735V233.938H294.845V233H297.463L297.687 233.91H297.757C298.074 233.621 298.429 233.373 298.821 233.168C299.213 232.963 299.68 232.86 300.221 232.86C300.538 232.86 300.79 232.921 300.977 233.042C301.173 233.163 301.322 233.341 301.425 233.574C301.537 233.807 301.612 234.092 301.649 234.428C301.686 234.755 301.705 235.128 301.705 235.548L300.725 235.562C300.725 234.965 300.664 234.526 300.543 234.246C300.431 233.966 300.221 233.826 299.913 233.826C299.624 233.826 299.362 233.868 299.129 233.952C298.896 234.036 298.69 234.139 298.513 234.26C298.345 234.381 298.2 234.503 298.079 234.624C297.958 234.745 297.869 234.848 297.813 234.932V239.062H300.501V240H294.845ZM302.511 230.2H304.779V235.996H305.549L308.307 233H309.623L306.529 236.318L309.077 239.062H309.987V240H308.545L305.549 236.836H304.779V240H303.701V231.138H302.511V230.2ZM324.719 237.284H320.953L320.057 240H318.909L322.185 230.2H323.557L326.861 240H325.643L324.719 237.284ZM321.317 236.276H324.397L322.955 231.67H322.787L321.317 236.276ZM333.085 234.078C332.87 234.003 332.637 233.943 332.385 233.896C332.142 233.84 331.9 233.812 331.657 233.812C330.742 233.812 330.061 234.027 329.613 234.456C329.165 234.885 328.941 235.567 328.941 236.5C328.941 236.911 329.006 237.279 329.137 237.606C329.268 237.923 329.454 238.194 329.697 238.418C329.94 238.642 330.229 238.815 330.565 238.936C330.91 239.057 331.288 239.118 331.699 239.118C332.138 239.118 332.562 239.043 332.973 238.894C333.393 238.745 333.743 238.549 334.023 238.306L334.513 239.118C334.382 239.23 334.219 239.347 334.023 239.468C333.827 239.589 333.598 239.706 333.337 239.818C333.085 239.921 332.8 240.005 332.483 240.07C332.175 240.135 331.839 240.168 331.475 240.168C330.868 240.168 330.332 240.084 329.865 239.916C329.408 239.739 329.025 239.491 328.717 239.174C328.409 238.847 328.176 238.46 328.017 238.012C327.858 237.555 327.779 237.051 327.779 236.5C327.779 235.912 327.858 235.389 328.017 234.932C328.185 234.475 328.423 234.092 328.731 233.784C329.039 233.476 329.412 233.243 329.851 233.084C330.29 232.916 330.78 232.832 331.321 232.832C332.012 232.832 332.572 232.893 333.001 233.014C333.44 233.135 333.808 233.271 334.107 233.42L334.093 233.462V235.408H333.085V234.078ZM335.628 233H337.294V231.614L338.386 231.306V233H342.124V233.938H338.386V237.242C338.386 237.923 338.549 238.427 338.876 238.754C339.212 239.081 339.688 239.244 340.304 239.244C340.724 239.244 341.088 239.165 341.396 239.006C341.713 238.847 341.998 238.675 342.25 238.488L342.614 239.314C342.287 239.575 341.895 239.785 341.438 239.944C340.99 240.103 340.528 240.182 340.052 240.182C339.678 240.182 339.324 240.126 338.988 240.014C338.661 239.911 338.372 239.748 338.12 239.524C337.868 239.3 337.667 239.015 337.518 238.67C337.368 238.315 337.294 237.895 337.294 237.41V233.938H335.628V233Z" fill="#1E1E21" fill-opacity="0.65"/>
<path d="M360.405 230.2C360.759 230.153 361.128 230.125 361.511 230.116C361.903 230.097 362.234 230.088 362.505 230.088C363.354 230.088 364.063 230.209 364.633 230.452C365.211 230.695 365.673 231.035 366.019 231.474C366.373 231.903 366.625 232.421 366.775 233.028C366.933 233.635 367.013 234.302 367.013 235.03C367.013 235.693 366.943 236.332 366.803 236.948C366.663 237.555 366.42 238.096 366.075 238.572C365.729 239.039 365.263 239.417 364.675 239.706C364.096 239.986 363.368 240.126 362.491 240.126C362.369 240.126 362.211 240.121 362.015 240.112C361.819 240.112 361.618 240.103 361.413 240.084C361.207 240.075 361.011 240.065 360.825 240.056C360.638 240.047 360.498 240.033 360.405 240.014V230.2ZM362.561 231.124C362.43 231.124 362.262 231.129 362.057 231.138C361.861 231.147 361.697 231.166 361.567 231.194V239.034C361.613 239.043 361.679 239.053 361.763 239.062C361.856 239.062 361.949 239.067 362.043 239.076C362.136 239.076 362.225 239.081 362.309 239.09C362.402 239.09 362.477 239.09 362.533 239.09C363.214 239.09 363.765 238.978 364.185 238.754C364.614 238.53 364.945 238.231 365.179 237.858C365.412 237.475 365.571 237.041 365.655 236.556C365.739 236.061 365.781 235.553 365.781 235.03C365.781 234.573 365.743 234.115 365.669 233.658C365.594 233.191 365.44 232.771 365.207 232.398C364.983 232.025 364.656 231.721 364.227 231.488C363.807 231.245 363.251 231.124 362.561 231.124ZM369.051 233.546C369.452 233.313 369.905 233.145 370.409 233.042C370.913 232.939 371.408 232.888 371.893 232.888C372.369 232.888 372.756 232.963 373.055 233.112C373.363 233.261 373.601 233.457 373.769 233.7C373.946 233.933 374.063 234.204 374.119 234.512C374.184 234.811 374.217 235.114 374.217 235.422C374.217 235.777 374.208 236.155 374.189 236.556C374.17 236.957 374.156 237.359 374.147 237.76C374.147 238.227 374.175 238.67 374.231 239.09H375.169V240H373.307L373.181 238.95H373.111C373.055 239.034 372.971 239.141 372.859 239.272C372.747 239.403 372.598 239.533 372.411 239.664C372.234 239.785 372.014 239.893 371.753 239.986C371.492 240.079 371.184 240.126 370.829 240.126C370.138 240.126 369.592 239.949 369.191 239.594C368.79 239.239 368.589 238.754 368.589 238.138C368.589 237.662 368.692 237.265 368.897 236.948C369.112 236.631 369.415 236.388 369.807 236.22C370.199 236.052 370.67 235.954 371.221 235.926C371.781 235.898 372.406 235.935 373.097 236.038C373.144 235.609 373.148 235.254 373.111 234.974C373.083 234.685 373.008 234.456 372.887 234.288C372.775 234.12 372.612 234.003 372.397 233.938C372.192 233.863 371.935 233.826 371.627 233.826C371.207 233.826 370.806 233.887 370.423 234.008C370.04 234.12 369.7 234.237 369.401 234.358L369.051 233.546ZM371.109 239.188C371.37 239.188 371.613 239.146 371.837 239.062C372.061 238.978 372.257 238.871 372.425 238.74C372.593 238.609 372.733 238.469 372.845 238.32C372.957 238.161 373.041 238.012 373.097 237.872V236.892C372.612 236.808 372.164 236.766 371.753 236.766C371.342 236.766 370.988 236.813 370.689 236.906C370.39 236.99 370.157 237.125 369.989 237.312C369.821 237.499 369.737 237.741 369.737 238.04C369.737 238.348 369.84 238.619 370.045 238.852C370.26 239.076 370.614 239.188 371.109 239.188ZM376.718 240V239.062H378.608V233.938H376.718V233H379.336L379.56 233.91H379.63C379.947 233.621 380.302 233.373 380.694 233.168C381.086 232.963 381.552 232.86 382.094 232.86C382.411 232.86 382.663 232.921 382.85 233.042C383.046 233.163 383.195 233.341 383.298 233.574C383.41 233.807 383.484 234.092 383.522 234.428C383.559 234.755 383.578 235.128 383.578 235.548L382.598 235.562C382.598 234.965 382.537 234.526 382.416 234.246C382.304 233.966 382.094 233.826 381.786 233.826C381.496 233.826 381.235 233.868 381.002 233.952C380.768 234.036 380.563 234.139 380.386 234.26C380.218 234.381 380.073 234.503 379.952 234.624C379.83 234.745 379.742 234.848 379.686 234.932V239.062H382.374V240H376.718ZM384.384 230.2H386.652V235.996H387.422L390.18 233H391.496L388.402 236.318L390.95 239.062H391.86V240H390.418L387.422 236.836H386.652V240H385.574V231.138H384.384V230.2ZM401.397 230.2H408.117V231.236H405.331V238.964H408.117V240H401.397V238.964H404.169V231.236H401.397V230.2ZM410.114 235.45C410.114 235.366 410.109 235.259 410.1 235.128C410.1 234.988 410.095 234.848 410.086 234.708C410.076 234.559 410.062 234.414 410.044 234.274C410.034 234.134 410.02 234.013 410.002 233.91H409.064V233H410.94L411.066 234.134H411.136C411.229 233.975 411.35 233.821 411.5 233.672C411.658 233.513 411.84 233.373 412.046 233.252C412.251 233.121 412.48 233.019 412.732 232.944C412.984 232.869 413.25 232.832 413.53 232.832C413.959 232.832 414.337 232.879 414.664 232.972C415 233.065 415.275 233.233 415.49 233.476C415.714 233.709 415.882 234.031 415.994 234.442C416.106 234.843 416.162 235.357 416.162 235.982V240H415.07V236.192C415.07 235.417 414.944 234.834 414.692 234.442C414.44 234.05 413.982 233.854 413.32 233.854C413.077 233.854 412.839 233.905 412.606 234.008C412.382 234.101 412.176 234.227 411.99 234.386C411.803 234.545 411.64 234.731 411.5 234.946C411.36 235.151 411.257 235.371 411.192 235.604V240H410.114V235.45ZM418.578 233.546C418.98 233.313 419.432 233.145 419.936 233.042C420.44 232.939 420.935 232.888 421.42 232.888C421.896 232.888 422.284 232.963 422.582 233.112C422.89 233.261 423.128 233.457 423.296 233.7C423.474 233.933 423.59 234.204 423.646 234.512C423.712 234.811 423.744 235.114 423.744 235.422C423.744 235.777 423.735 236.155 423.716 236.556C423.698 236.957 423.684 237.359 423.674 237.76C423.674 238.227 423.702 238.67 423.758 239.09H424.696V240H422.834L422.708 238.95H422.638C422.582 239.034 422.498 239.141 422.386 239.272C422.274 239.403 422.125 239.533 421.938 239.664C421.761 239.785 421.542 239.893 421.28 239.986C421.019 240.079 420.711 240.126 420.356 240.126C419.666 240.126 419.12 239.949 418.718 239.594C418.317 239.239 418.116 238.754 418.116 238.138C418.116 237.662 418.219 237.265 418.424 236.948C418.639 236.631 418.942 236.388 419.334 236.22C419.726 236.052 420.198 235.954 420.748 235.926C421.308 235.898 421.934 235.935 422.624 236.038C422.671 235.609 422.676 235.254 422.638 234.974C422.61 234.685 422.536 234.456 422.414 234.288C422.302 234.12 422.139 234.003 421.924 233.938C421.719 233.863 421.462 233.826 421.154 233.826C420.734 233.826 420.333 233.887 419.95 234.008C419.568 234.12 419.227 234.237 418.928 234.358L418.578 233.546ZM420.636 239.188C420.898 239.188 421.14 239.146 421.364 239.062C421.588 238.978 421.784 238.871 421.952 238.74C422.12 238.609 422.26 238.469 422.372 238.32C422.484 238.161 422.568 238.012 422.624 237.872V236.892C422.139 236.808 421.691 236.766 421.28 236.766C420.87 236.766 420.515 236.813 420.216 236.906C419.918 236.99 419.684 237.125 419.516 237.312C419.348 237.499 419.264 237.741 419.264 238.04C419.264 238.348 419.367 238.619 419.572 238.852C419.787 239.076 420.142 239.188 420.636 239.188ZM431.467 234.078C431.252 234.003 431.019 233.943 430.767 233.896C430.524 233.84 430.282 233.812 430.039 233.812C429.124 233.812 428.443 234.027 427.995 234.456C427.547 234.885 427.323 235.567 427.323 236.5C427.323 236.911 427.388 237.279 427.519 237.606C427.65 237.923 427.836 238.194 428.079 238.418C428.322 238.642 428.611 238.815 428.947 238.936C429.292 239.057 429.67 239.118 430.081 239.118C430.52 239.118 430.944 239.043 431.355 238.894C431.775 238.745 432.125 238.549 432.405 238.306L432.895 239.118C432.764 239.23 432.601 239.347 432.405 239.468C432.209 239.589 431.98 239.706 431.719 239.818C431.467 239.921 431.182 240.005 430.865 240.07C430.557 240.135 430.221 240.168 429.857 240.168C429.25 240.168 428.714 240.084 428.247 239.916C427.79 239.739 427.407 239.491 427.099 239.174C426.791 238.847 426.558 238.46 426.399 238.012C426.24 237.555 426.161 237.051 426.161 236.5C426.161 235.912 426.24 235.389 426.399 234.932C426.567 234.475 426.805 234.092 427.113 233.784C427.421 233.476 427.794 233.243 428.233 233.084C428.672 232.916 429.162 232.832 429.703 232.832C430.394 232.832 430.954 232.893 431.383 233.014C431.822 233.135 432.19 233.271 432.489 233.42L432.475 233.462V235.408H431.467V234.078Z" fill="#1E1E21" fill-opacity="0.65"/>
<path d="M75.7 195.218C76.06 195.41 76.462 195.572 76.906 195.704C77.362 195.824 77.818 195.884 78.274 195.884C78.67 195.884 79.042 195.848 79.39 195.776C79.738 195.692 80.038 195.566 80.29 195.398C80.554 195.218 80.758 194.996 80.902 194.732C81.058 194.468 81.136 194.156 81.136 193.796C81.136 193.304 80.968 192.902 80.632 192.59C80.308 192.278 79.9 192.002 79.408 191.762C78.916 191.522 78.382 191.288 77.806 191.06C77.23 190.832 76.696 190.562 76.204 190.25C75.712 189.938 75.298 189.56 74.962 189.116C74.638 188.66 74.476 188.084 74.476 187.388C74.476 186.896 74.572 186.452 74.764 186.056C74.968 185.66 75.25 185.324 75.61 185.048C75.97 184.772 76.402 184.562 76.906 184.418C77.422 184.262 77.992 184.184 78.616 184.184C79.336 184.184 79.99 184.238 80.578 184.346C81.166 184.442 81.634 184.574 81.982 184.742L82.018 184.724V184.76H82.036L82.018 184.814V187.694H80.686V185.768C80.386 185.696 80.056 185.636 79.696 185.588C79.336 185.54 78.952 185.516 78.544 185.516C78.148 185.516 77.788 185.564 77.464 185.66C77.152 185.756 76.882 185.888 76.654 186.056C76.438 186.212 76.27 186.398 76.15 186.614C76.03 186.83 75.97 187.058 75.97 187.298C75.97 187.766 76.132 188.156 76.456 188.468C76.792 188.78 77.206 189.062 77.698 189.314C78.19 189.554 78.724 189.794 79.3 190.034C79.876 190.274 80.41 190.556 80.902 190.88C81.394 191.192 81.802 191.57 82.126 192.014C82.462 192.458 82.63 193.01 82.63 193.67C82.63 194.21 82.528 194.696 82.324 195.128C82.132 195.56 81.85 195.932 81.478 196.244C81.118 196.556 80.668 196.796 80.128 196.964C79.6 197.132 79 197.216 78.328 197.216C77.872 197.216 77.44 197.18 77.032 197.108C76.624 197.036 76.246 196.946 75.898 196.838C75.562 196.73 75.256 196.616 74.98 196.496C74.716 196.376 74.506 196.274 74.35 196.19L74.368 196.136V193.22H75.7V195.218ZM89.715 189.98L91.515 194.984H91.641L92.919 188H94.233L92.469 197H90.867L89.139 192.032H89.085L87.285 197H85.683L83.793 188H85.179L86.637 195.02H86.745L88.491 189.98H89.715ZM96.1159 197V195.794H99.2479V189.206H96.1159V188H100.688V195.794H103.748V197H96.1159ZM98.7619 185.444C98.7619 185.12 98.8699 184.844 99.0859 184.616C99.3019 184.376 99.5779 184.256 99.9139 184.256C100.262 184.256 100.55 184.376 100.778 184.616C101.018 184.844 101.138 185.12 101.138 185.444C101.138 185.756 101.018 186.02 100.778 186.236C100.55 186.452 100.262 186.56 99.9139 186.56C99.5779 186.56 99.3019 186.452 99.0859 186.236C98.8699 186.02 98.7619 185.756 98.7619 185.444ZM105.397 188H107.539V186.218L108.943 185.822V188H113.749V189.206H108.943V193.454C108.943 194.33 109.153 194.978 109.573 195.398C110.005 195.818 110.617 196.028 111.409 196.028C111.949 196.028 112.417 195.926 112.813 195.722C113.221 195.518 113.587 195.296 113.911 195.056L114.379 196.118C113.959 196.454 113.455 196.724 112.867 196.928C112.291 197.132 111.697 197.234 111.085 197.234C110.605 197.234 110.149 197.162 109.717 197.018C109.297 196.886 108.925 196.676 108.601 196.388C108.277 196.1 108.019 195.734 107.827 195.29C107.635 194.834 107.539 194.294 107.539 193.67V189.206H105.397V188ZM123.354 189.386C123.078 189.29 122.778 189.212 122.454 189.152C122.142 189.08 121.83 189.044 121.518 189.044C120.342 189.044 119.466 189.32 118.89 189.872C118.314 190.424 118.026 191.3 118.026 192.5C118.026 193.028 118.11 193.502 118.278 193.922C118.446 194.33 118.686 194.678 118.998 194.966C119.31 195.254 119.682 195.476 120.114 195.632C120.558 195.788 121.044 195.866 121.572 195.866C122.136 195.866 122.682 195.77 123.21 195.578C123.75 195.386 124.2 195.134 124.56 194.822L125.19 195.866C125.022 196.01 124.812 196.16 124.56 196.316C124.308 196.472 124.014 196.622 123.678 196.766C123.354 196.898 122.988 197.006 122.58 197.09C122.184 197.174 121.752 197.216 121.284 197.216C120.504 197.216 119.814 197.108 119.214 196.892C118.626 196.664 118.134 196.346 117.738 195.938C117.342 195.518 117.042 195.02 116.838 194.444C116.634 193.856 116.532 193.208 116.532 192.5C116.532 191.744 116.634 191.072 116.838 190.484C117.054 189.896 117.36 189.404 117.756 189.008C118.152 188.612 118.632 188.312 119.196 188.108C119.76 187.892 120.39 187.784 121.086 187.784C121.974 187.784 122.694 187.862 123.246 188.018C123.81 188.174 124.284 188.348 124.668 188.54L124.65 188.594V191.096H123.354V189.386ZM126.137 184.4H128.945V189.116H129.035C129.407 188.696 129.839 188.372 130.331 188.144C130.823 187.904 131.435 187.784 132.167 187.784C132.743 187.784 133.241 187.844 133.661 187.964C134.093 188.084 134.441 188.294 134.705 188.594C134.981 188.894 135.185 189.308 135.317 189.836C135.449 190.352 135.515 191.012 135.515 191.816V197H134.111V192.086C134.111 191.57 134.081 191.12 134.021 190.736C133.961 190.352 133.841 190.034 133.661 189.782C133.493 189.518 133.259 189.32 132.959 189.188C132.659 189.056 132.275 188.99 131.807 188.99C131.483 188.99 131.165 189.05 130.853 189.17C130.541 189.278 130.253 189.434 129.989 189.638C129.737 189.83 129.515 190.07 129.323 190.358C129.143 190.634 129.017 190.94 128.945 191.276V197H127.559V185.606H126.137V184.4Z" fill="#1E1E21"/>
</svg>
